<?xml version="1.0" encoding="utf-8" standalone="no"?>
<!DOCTYPE svg PUBLIC "-//W3C//DTD SVG 1.1//EN"
  "http://www.w3.org/Graphics/SVG/1.1/DTD/svg11.dtd">
<svg xmlns:xlink="http://www.w3.org/1999/xlink" width="872.39952pt" height="368.39952pt" viewBox="0 0 872.39952 368.39952" xmlns="http://www.w3.org/2000/svg" version="1.1">
 <metadata>
  <rdf:RDF xmlns:dc="http://purl.org/dc/elements/1.1/" xmlns:cc="http://creativecommons.org/ns#" xmlns:rdf="http://www.w3.org/1999/02/22-rdf-syntax-ns#">
   <cc:Work>
    <dc:type rdf:resource="http://purl.org/dc/dcmitype/StillImage"/>
    <dc:format>image/svg+xml</dc:format>
    <dc:creator>
     <cc:Agent>
      <dc:title>Painter responsiveness v1</dc:title>
     </cc:Agent>
    </dc:creator>
   </cc:Work>
  </rdf:RDF>
 </metadata>
 <defs>
  <style type="text/css">*{stroke-linejoin: round; stroke-linecap: butt}</style>
 </defs>
 <g id="figure_1">
  <g id="patch_1">
   <path d="M 0 368.39952 
L 872.39952 368.39952 
L 872.39952 0 
L 0 0 
z
" style="fill: #ffffff"/>
  </g>
  <g id="axes_1">
   <g id="patch_2">
    <path d="M 95.75625 330.198739 
L 454.524682 330.198739 
L 454.524682 43.922578 
L 95.75625 43.922578 
z
" style="fill: #ffffff"/>
   </g>
   <g id="matplotlib.axis_1">
    <g id="xtick_1">
     <g id="line2d_1">
      <defs>
       <path id="m8e044b5f90" d="M 0 0 
L 0 3.5 
" style="stroke: #000000; stroke-width: 0.8"/>
      </defs>
      <g>
       <use xlink:href="#m8e044b5f90" x="125.375617" y="330.198739" style="stroke: #000000; stroke-width: 0.8"/>
      </g>
     </g>
     <g id="text_1">
      <!-- 5 -->
      <g transform="translate(122.194367 344.796395) scale(0.1 -0.1)">
       <defs>
        <path id="DejaVuSans-18" d="M 691 4666 
L 3169 4666 
L 3169 4134 
L 1269 4134 
L 1269 2991 
Q 1406 3038 1543 3061 
Q 1681 3084 1819 3084 
Q 2600 3084 3056 2656 
Q 3513 2228 3513 1497 
Q 3513 744 3044 326 
Q 2575 -91 1722 -91 
Q 1428 -91 1123 -41 
Q 819 9 494 109 
L 494 744 
Q 775 591 1075 516 
Q 1375 441 1709 441 
Q 2250 441 2565 725 
Q 2881 1009 2881 1497 
Q 2881 1984 2565 2268 
Q 2250 2553 1709 2553 
Q 1456 2553 1204 2497 
Q 953 2441 691 2322 
L 691 4666 
z
" transform="scale(0.015625)"/>
       </defs>
       <use xlink:href="#DejaVuSans-18"/>
      </g>
     </g>
    </g>
    <g id="xtick_2">
     <g id="line2d_2">
      <g>
       <use xlink:href="#m8e044b5f90" x="170.171283" y="330.198739" style="stroke: #000000; stroke-width: 0.8"/>
      </g>
     </g>
     <g id="text_2">
      <!-- 10 -->
      <g transform="translate(163.808783 344.796395) scale(0.1 -0.1)">
       <defs>
        <path id="DejaVuSans-14" d="M 794 531 
L 1825 531 
L 1825 4091 
L 703 3866 
L 703 4441 
L 1819 4666 
L 2450 4666 
L 2450 531 
L 3481 531 
L 3481 0 
L 794 0 
L 794 531 
z
" transform="scale(0.015625)"/>
        <path id="DejaVuSans-13" d="M 2034 4250 
Q 1547 4250 1301 3770 
Q 1056 3291 1056 2328 
Q 1056 1369 1301 889 
Q 1547 409 2034 409 
Q 2525 409 2770 889 
Q 3016 1369 3016 2328 
Q 3016 3291 2770 3770 
Q 2525 4250 2034 4250 
z
M 2034 4750 
Q 2819 4750 3233 4129 
Q 3647 3509 3647 2328 
Q 3647 1150 3233 529 
Q 2819 -91 2034 -91 
Q 1250 -91 836 529 
Q 422 1150 422 2328 
Q 422 3509 836 4129 
Q 1250 4750 2034 4750 
z
" transform="scale(0.015625)"/>
       </defs>
       <use xlink:href="#DejaVuSans-14"/>
       <use xlink:href="#DejaVuSans-13" transform="translate(63.625 0)"/>
      </g>
     </g>
    </g>
    <g id="xtick_3">
     <g id="line2d_3">
      <g>
       <use xlink:href="#m8e044b5f90" x="214.966948" y="330.198739" style="stroke: #000000; stroke-width: 0.8"/>
      </g>
     </g>
     <g id="text_3">
      <!-- 15 -->
      <g transform="translate(208.604448 344.796395) scale(0.1 -0.1)">
       <use xlink:href="#DejaVuSans-14"/>
       <use xlink:href="#DejaVuSans-18" transform="translate(63.625 0)"/>
      </g>
     </g>
    </g>
    <g id="xtick_4">
     <g id="line2d_4">
      <g>
       <use xlink:href="#m8e044b5f90" x="259.762614" y="330.198739" style="stroke: #000000; stroke-width: 0.8"/>
      </g>
     </g>
     <g id="text_4">
      <!-- 20 -->
      <g transform="translate(253.400114 344.796395) scale(0.1 -0.1)">
       <defs>
        <path id="DejaVuSans-15" d="M 1228 531 
L 3431 531 
L 3431 0 
L 469 0 
L 469 531 
Q 828 903 1448 1529 
Q 2069 2156 2228 2338 
Q 2531 2678 2651 2914 
Q 2772 3150 2772 3378 
Q 2772 3750 2511 3984 
Q 2250 4219 1831 4219 
Q 1534 4219 1204 4116 
Q 875 4013 500 3803 
L 500 4441 
Q 881 4594 1212 4672 
Q 1544 4750 1819 4750 
Q 2544 4750 2975 4387 
Q 3406 4025 3406 3419 
Q 3406 3131 3298 2873 
Q 3191 2616 2906 2266 
Q 2828 2175 2409 1742 
Q 1991 1309 1228 531 
z
" transform="scale(0.015625)"/>
       </defs>
       <use xlink:href="#DejaVuSans-15"/>
       <use xlink:href="#DejaVuSans-13" transform="translate(63.625 0)"/>
      </g>
     </g>
    </g>
    <g id="xtick_5">
     <g id="line2d_5">
      <g>
       <use xlink:href="#m8e044b5f90" x="304.558279" y="330.198739" style="stroke: #000000; stroke-width: 0.8"/>
      </g>
     </g>
     <g id="text_5">
      <!-- 25 -->
      <g transform="translate(298.195779 344.796395) scale(0.1 -0.1)">
       <use xlink:href="#DejaVuSans-15"/>
       <use xlink:href="#DejaVuSans-18" transform="translate(63.625 0)"/>
      </g>
     </g>
    </g>
    <g id="xtick_6">
     <g id="line2d_6">
      <g>
       <use xlink:href="#m8e044b5f90" x="349.353945" y="330.198739" style="stroke: #000000; stroke-width: 0.8"/>
      </g>
     </g>
     <g id="text_6">
      <!-- 30 -->
      <g transform="translate(342.991445 344.796395) scale(0.1 -0.1)">
       <defs>
        <path id="DejaVuSans-16" d="M 2597 2516 
Q 3050 2419 3304 2112 
Q 3559 1806 3559 1356 
Q 3559 666 3084 287 
Q 2609 -91 1734 -91 
Q 1441 -91 1130 -33 
Q 819 25 488 141 
L 488 750 
Q 750 597 1062 519 
Q 1375 441 1716 441 
Q 2309 441 2620 675 
Q 2931 909 2931 1356 
Q 2931 1769 2642 2001 
Q 2353 2234 1838 2234 
L 1294 2234 
L 1294 2753 
L 1863 2753 
Q 2328 2753 2575 2939 
Q 2822 3125 2822 3475 
Q 2822 3834 2567 4026 
Q 2313 4219 1838 4219 
Q 1578 4219 1281 4162 
Q 984 4106 628 3988 
L 628 4550 
Q 988 4650 1302 4700 
Q 1616 4750 1894 4750 
Q 2613 4750 3031 4423 
Q 3450 4097 3450 3541 
Q 3450 3153 3228 2886 
Q 3006 2619 2597 2516 
z
" transform="scale(0.015625)"/>
       </defs>
       <use xlink:href="#DejaVuSans-16"/>
       <use xlink:href="#DejaVuSans-13" transform="translate(63.625 0)"/>
      </g>
     </g>
    </g>
    <g id="xtick_7">
     <g id="line2d_7">
      <g>
       <use xlink:href="#m8e044b5f90" x="394.14961" y="330.198739" style="stroke: #000000; stroke-width: 0.8"/>
      </g>
     </g>
     <g id="text_7">
      <!-- 35 -->
      <g transform="translate(387.78711 344.796395) scale(0.1 -0.1)">
       <use xlink:href="#DejaVuSans-16"/>
       <use xlink:href="#DejaVuSans-18" transform="translate(63.625 0)"/>
      </g>
     </g>
    </g>
    <g id="xtick_8">
     <g id="line2d_8">
      <g>
       <use xlink:href="#m8e044b5f90" x="438.945276" y="330.198739" style="stroke: #000000; stroke-width: 0.8"/>
      </g>
     </g>
     <g id="text_8">
      <!-- 40 -->
      <g transform="translate(432.582776 344.796395) scale(0.1 -0.1)">
       <defs>
        <path id="DejaVuSans-17" d="M 2419 4116 
L 825 1625 
L 2419 1625 
L 2419 4116 
z
M 2253 4666 
L 3047 4666 
L 3047 1625 
L 3713 1625 
L 3713 1100 
L 3047 1100 
L 3047 0 
L 2419 0 
L 2419 1100 
L 313 1100 
L 313 1709 
L 2253 4666 
z
" transform="scale(0.015625)"/>
       </defs>
       <use xlink:href="#DejaVuSans-17"/>
       <use xlink:href="#DejaVuSans-13" transform="translate(63.625 0)"/>
      </g>
     </g>
    </g>
    <g id="text_9">
     <!-- chroma_median (raw feature units) -->
     <g transform="translate(186.820153 358.797176) scale(0.1 -0.1)">
      <defs>
       <path id="DejaVuSans-46" d="M 3122 3366 
L 3122 2828 
Q 2878 2963 2633 3030 
Q 2388 3097 2138 3097 
Q 1578 3097 1268 2742 
Q 959 2388 959 1747 
Q 959 1106 1268 751 
Q 1578 397 2138 397 
Q 2388 397 2633 464 
Q 2878 531 3122 666 
L 3122 134 
Q 2881 22 2623 -34 
Q 2366 -91 2075 -91 
Q 1284 -91 818 406 
Q 353 903 353 1747 
Q 353 2603 823 3093 
Q 1294 3584 2113 3584 
Q 2378 3584 2631 3529 
Q 2884 3475 3122 3366 
z
" transform="scale(0.015625)"/>
       <path id="DejaVuSans-4b" d="M 3513 2113 
L 3513 0 
L 2938 0 
L 2938 2094 
Q 2938 2591 2744 2837 
Q 2550 3084 2163 3084 
Q 1697 3084 1428 2787 
Q 1159 2491 1159 1978 
L 1159 0 
L 581 0 
L 581 4863 
L 1159 4863 
L 1159 2956 
Q 1366 3272 1645 3428 
Q 1925 3584 2291 3584 
Q 2894 3584 3203 3211 
Q 3513 2838 3513 2113 
z
" transform="scale(0.015625)"/>
       <path id="DejaVuSans-55" d="M 2631 2963 
Q 2534 3019 2420 3045 
Q 2306 3072 2169 3072 
Q 1681 3072 1420 2755 
Q 1159 2438 1159 1844 
L 1159 0 
L 581 0 
L 581 3500 
L 1159 3500 
L 1159 2956 
Q 1341 3275 1631 3429 
Q 1922 3584 2338 3584 
Q 2397 3584 2469 3576 
Q 2541 3569 2628 3553 
L 2631 2963 
z
" transform="scale(0.015625)"/>
       <path id="DejaVuSans-52" d="M 1959 3097 
Q 1497 3097 1228 2736 
Q 959 2375 959 1747 
Q 959 1119 1226 758 
Q 1494 397 1959 397 
Q 2419 397 2687 759 
Q 2956 1122 2956 1747 
Q 2956 2369 2687 2733 
Q 2419 3097 1959 3097 
z
M 1959 3584 
Q 2709 3584 3137 3096 
Q 3566 2609 3566 1747 
Q 3566 888 3137 398 
Q 2709 -91 1959 -91 
Q 1206 -91 779 398 
Q 353 888 353 1747 
Q 353 2609 779 3096 
Q 1206 3584 1959 3584 
z
" transform="scale(0.015625)"/>
       <path id="DejaVuSans-50" d="M 3328 2828 
Q 3544 3216 3844 3400 
Q 4144 3584 4550 3584 
Q 5097 3584 5394 3201 
Q 5691 2819 5691 2113 
L 5691 0 
L 5113 0 
L 5113 2094 
Q 5113 2597 4934 2840 
Q 4756 3084 4391 3084 
Q 3944 3084 3684 2787 
Q 3425 2491 3425 1978 
L 3425 0 
L 2847 0 
L 2847 2094 
Q 2847 2600 2669 2842 
Q 2491 3084 2119 3084 
Q 1678 3084 1418 2786 
Q 1159 2488 1159 1978 
L 1159 0 
L 581 0 
L 581 3500 
L 1159 3500 
L 1159 2956 
Q 1356 3278 1631 3431 
Q 1906 3584 2284 3584 
Q 2666 3584 2933 3390 
Q 3200 3197 3328 2828 
z
" transform="scale(0.015625)"/>
       <path id="DejaVuSans-44" d="M 2194 1759 
Q 1497 1759 1228 1600 
Q 959 1441 959 1056 
Q 959 750 1161 570 
Q 1363 391 1709 391 
Q 2188 391 2477 730 
Q 2766 1069 2766 1631 
L 2766 1759 
L 2194 1759 
z
M 3341 1997 
L 3341 0 
L 2766 0 
L 2766 531 
Q 2569 213 2275 61 
Q 1981 -91 1556 -91 
Q 1019 -91 701 211 
Q 384 513 384 1019 
Q 384 1609 779 1909 
Q 1175 2209 1959 2209 
L 2766 2209 
L 2766 2266 
Q 2766 2663 2505 2880 
Q 2244 3097 1772 3097 
Q 1472 3097 1187 3025 
Q 903 2953 641 2809 
L 641 3341 
Q 956 3463 1253 3523 
Q 1550 3584 1831 3584 
Q 2591 3584 2966 3190 
Q 3341 2797 3341 1997 
z
" transform="scale(0.015625)"/>
       <path id="DejaVuSans-42" d="M 3263 -1063 
L 3263 -1509 
L -63 -1509 
L -63 -1063 
L 3263 -1063 
z
" transform="scale(0.015625)"/>
       <path id="DejaVuSans-48" d="M 3597 1894 
L 3597 1613 
L 953 1613 
Q 991 1019 1311 708 
Q 1631 397 2203 397 
Q 2534 397 2845 478 
Q 3156 559 3463 722 
L 3463 178 
Q 3153 47 2828 -22 
Q 2503 -91 2169 -91 
Q 1331 -91 842 396 
Q 353 884 353 1716 
Q 353 2575 817 3079 
Q 1281 3584 2069 3584 
Q 2775 3584 3186 3129 
Q 3597 2675 3597 1894 
z
M 3022 2063 
Q 3016 2534 2758 2815 
Q 2500 3097 2075 3097 
Q 1594 3097 1305 2825 
Q 1016 2553 972 2059 
L 3022 2063 
z
" transform="scale(0.015625)"/>
       <path id="DejaVuSans-47" d="M 2906 2969 
L 2906 4863 
L 3481 4863 
L 3481 0 
L 2906 0 
L 2906 525 
Q 2725 213 2448 61 
Q 2172 -91 1784 -91 
Q 1150 -91 751 415 
Q 353 922 353 1747 
Q 353 2572 751 3078 
Q 1150 3584 1784 3584 
Q 2172 3584 2448 3432 
Q 2725 3281 2906 2969 
z
M 947 1747 
Q 947 1113 1208 752 
Q 1469 391 1925 391 
Q 2381 391 2643 752 
Q 2906 1113 2906 1747 
Q 2906 2381 2643 2742 
Q 2381 3103 1925 3103 
Q 1469 3103 1208 2742 
Q 947 2381 947 1747 
z
" transform="scale(0.015625)"/>
       <path id="DejaVuSans-4c" d="M 603 3500 
L 1178 3500 
L 1178 0 
L 603 0 
L 603 3500 
z
M 603 4863 
L 1178 4863 
L 1178 4134 
L 603 4134 
L 603 4863 
z
" transform="scale(0.015625)"/>
       <path id="DejaVuSans-51" d="M 3513 2113 
L 3513 0 
L 2938 0 
L 2938 2094 
Q 2938 2591 2744 2837 
Q 2550 3084 2163 3084 
Q 1697 3084 1428 2787 
Q 1159 2491 1159 1978 
L 1159 0 
L 581 0 
L 581 3500 
L 1159 3500 
L 1159 2956 
Q 1366 3272 1645 3428 
Q 1925 3584 2291 3584 
Q 2894 3584 3203 3211 
Q 3513 2838 3513 2113 
z
" transform="scale(0.015625)"/>
       <path id="DejaVuSans-3" transform="scale(0.015625)"/>
       <path id="DejaVuSans-b" d="M 1984 4856 
Q 1566 4138 1362 3434 
Q 1159 2731 1159 2009 
Q 1159 1288 1364 580 
Q 1569 -128 1984 -844 
L 1484 -844 
Q 1016 -109 783 600 
Q 550 1309 550 2009 
Q 550 2706 781 3412 
Q 1013 4119 1484 4856 
L 1984 4856 
z
" transform="scale(0.015625)"/>
       <path id="DejaVuSans-5a" d="M 269 3500 
L 844 3500 
L 1563 769 
L 2278 3500 
L 2956 3500 
L 3675 769 
L 4391 3500 
L 4966 3500 
L 4050 0 
L 3372 0 
L 2619 2869 
L 1863 0 
L 1184 0 
L 269 3500 
z
" transform="scale(0.015625)"/>
       <path id="DejaVuSans-49" d="M 2375 4863 
L 2375 4384 
L 1825 4384 
Q 1516 4384 1395 4259 
Q 1275 4134 1275 3809 
L 1275 3500 
L 2222 3500 
L 2222 3053 
L 1275 3053 
L 1275 0 
L 697 0 
L 697 3053 
L 147 3053 
L 147 3500 
L 697 3500 
L 697 3744 
Q 697 4328 969 4595 
Q 1241 4863 1831 4863 
L 2375 4863 
z
" transform="scale(0.015625)"/>
       <path id="DejaVuSans-57" d="M 1172 4494 
L 1172 3500 
L 2356 3500 
L 2356 3053 
L 1172 3053 
L 1172 1153 
Q 1172 725 1289 603 
Q 1406 481 1766 481 
L 2356 481 
L 2356 0 
L 1766 0 
Q 1100 0 847 248 
Q 594 497 594 1153 
L 594 3053 
L 172 3053 
L 172 3500 
L 594 3500 
L 594 4494 
L 1172 4494 
z
" transform="scale(0.015625)"/>
       <path id="DejaVuSans-58" d="M 544 1381 
L 544 3500 
L 1119 3500 
L 1119 1403 
Q 1119 906 1312 657 
Q 1506 409 1894 409 
Q 2359 409 2629 706 
Q 2900 1003 2900 1516 
L 2900 3500 
L 3475 3500 
L 3475 0 
L 2900 0 
L 2900 538 
Q 2691 219 2414 64 
Q 2138 -91 1772 -91 
Q 1169 -91 856 284 
Q 544 659 544 1381 
z
M 1991 3584 
L 1991 3584 
z
" transform="scale(0.015625)"/>
       <path id="DejaVuSans-56" d="M 2834 3397 
L 2834 2853 
Q 2591 2978 2328 3040 
Q 2066 3103 1784 3103 
Q 1356 3103 1142 2972 
Q 928 2841 928 2578 
Q 928 2378 1081 2264 
Q 1234 2150 1697 2047 
L 1894 2003 
Q 2506 1872 2764 1633 
Q 3022 1394 3022 966 
Q 3022 478 2636 193 
Q 2250 -91 1575 -91 
Q 1294 -91 989 -36 
Q 684 19 347 128 
L 347 722 
Q 666 556 975 473 
Q 1284 391 1588 391 
Q 1994 391 2212 530 
Q 2431 669 2431 922 
Q 2431 1156 2273 1281 
Q 2116 1406 1581 1522 
L 1381 1569 
Q 847 1681 609 1914 
Q 372 2147 372 2553 
Q 372 3047 722 3315 
Q 1072 3584 1716 3584 
Q 2034 3584 2315 3537 
Q 2597 3491 2834 3397 
z
" transform="scale(0.015625)"/>
       <path id="DejaVuSans-c" d="M 513 4856 
L 1013 4856 
Q 1481 4119 1714 3412 
Q 1947 2706 1947 2009 
Q 1947 1309 1714 600 
Q 1481 -109 1013 -844 
L 513 -844 
Q 928 -128 1133 580 
Q 1338 1288 1338 2009 
Q 1338 2731 1133 3434 
Q 928 4138 513 4856 
z
" transform="scale(0.015625)"/>
      </defs>
      <use xlink:href="#DejaVuSans-46"/>
      <use xlink:href="#DejaVuSans-4b" transform="translate(54.984375 0)"/>
      <use xlink:href="#DejaVuSans-55" transform="translate(118.359375 0)"/>
      <use xlink:href="#DejaVuSans-52" transform="translate(157.265625 0)"/>
      <use xlink:href="#DejaVuSans-50" transform="translate(218.453125 0)"/>
      <use xlink:href="#DejaVuSans-44" transform="translate(315.859375 0)"/>
      <use xlink:href="#DejaVuSans-42" transform="translate(377.140625 0)"/>
      <use xlink:href="#DejaVuSans-50" transform="translate(427.140625 0)"/>
      <use xlink:href="#DejaVuSans-48" transform="translate(524.546875 0)"/>
      <use xlink:href="#DejaVuSans-47" transform="translate(586.078125 0)"/>
      <use xlink:href="#DejaVuSans-4c" transform="translate(649.5625 0)"/>
      <use xlink:href="#DejaVuSans-44" transform="translate(677.34375 0)"/>
      <use xlink:href="#DejaVuSans-51" transform="translate(738.625 0)"/>
      <use xlink:href="#DejaVuSans-3" transform="translate(802 0)"/>
      <use xlink:href="#DejaVuSans-b" transform="translate(833.78125 0)"/>
      <use xlink:href="#DejaVuSans-55" transform="translate(872.796875 0)"/>
      <use xlink:href="#DejaVuSans-44" transform="translate(913.90625 0)"/>
      <use xlink:href="#DejaVuSans-5a" transform="translate(975.1875 0)"/>
      <use xlink:href="#DejaVuSans-3" transform="translate(1056.96875 0)"/>
      <use xlink:href="#DejaVuSans-49" transform="translate(1088.75 0)"/>
      <use xlink:href="#DejaVuSans-48" transform="translate(1123.953125 0)"/>
      <use xlink:href="#DejaVuSans-44" transform="translate(1185.484375 0)"/>
      <use xlink:href="#DejaVuSans-57" transform="translate(1246.765625 0)"/>
      <use xlink:href="#DejaVuSans-58" transform="translate(1285.96875 0)"/>
      <use xlink:href="#DejaVuSans-55" transform="translate(1349.34375 0)"/>
      <use xlink:href="#DejaVuSans-48" transform="translate(1388.25 0)"/>
      <use xlink:href="#DejaVuSans-3" transform="translate(1449.78125 0)"/>
      <use xlink:href="#DejaVuSans-58" transform="translate(1481.5625 0)"/>
      <use xlink:href="#DejaVuSans-51" transform="translate(1544.9375 0)"/>
      <use xlink:href="#DejaVuSans-4c" transform="translate(1608.3125 0)"/>
      <use xlink:href="#DejaVuSans-57" transform="translate(1636.09375 0)"/>
      <use xlink:href="#DejaVuSans-56" transform="translate(1675.296875 0)"/>
      <use xlink:href="#DejaVuSans-c" transform="translate(1727.390625 0)"/>
     </g>
    </g>
   </g>
   <g id="matplotlib.axis_2">
    <g id="ytick_1">
     <g id="line2d_9">
      <defs>
       <path id="m7baa21dd1d" d="M 0 0 
L -3.5 0 
" style="stroke: #000000; stroke-width: 0.8"/>
      </defs>
      <g>
       <use xlink:href="#m7baa21dd1d" x="95.75625" y="308.446412" style="stroke: #000000; stroke-width: 0.8"/>
      </g>
     </g>
     <g id="text_10">
      <!-- Monet / built -->
      <g transform="translate(25.710938 312.245631) scale(0.1 -0.1)">
       <defs>
        <path id="DejaVuSans-30" d="M 628 4666 
L 1569 4666 
L 2759 1491 
L 3956 4666 
L 4897 4666 
L 4897 0 
L 4281 0 
L 4281 4097 
L 3078 897 
L 2444 897 
L 1241 4097 
L 1241 0 
L 628 0 
L 628 4666 
z
" transform="scale(0.015625)"/>
        <path id="DejaVuSans-12" d="M 1625 4666 
L 2156 4666 
L 531 -594 
L 0 -594 
L 1625 4666 
z
" transform="scale(0.015625)"/>
        <path id="DejaVuSans-45" d="M 3116 1747 
Q 3116 2381 2855 2742 
Q 2594 3103 2138 3103 
Q 1681 3103 1420 2742 
Q 1159 2381 1159 1747 
Q 1159 1113 1420 752 
Q 1681 391 2138 391 
Q 2594 391 2855 752 
Q 3116 1113 3116 1747 
z
M 1159 2969 
Q 1341 3281 1617 3432 
Q 1894 3584 2278 3584 
Q 2916 3584 3314 3078 
Q 3713 2572 3713 1747 
Q 3713 922 3314 415 
Q 2916 -91 2278 -91 
Q 1894 -91 1617 61 
Q 1341 213 1159 525 
L 1159 0 
L 581 0 
L 581 4863 
L 1159 4863 
L 1159 2969 
z
" transform="scale(0.015625)"/>
        <path id="DejaVuSans-4f" d="M 603 4863 
L 1178 4863 
L 1178 0 
L 603 0 
L 603 4863 
z
" transform="scale(0.015625)"/>
       </defs>
       <use xlink:href="#DejaVuSans-30"/>
       <use xlink:href="#DejaVuSans-52" transform="translate(86.28125 0)"/>
       <use xlink:href="#DejaVuSans-51" transform="translate(147.46875 0)"/>
       <use xlink:href="#DejaVuSans-48" transform="translate(210.84375 0)"/>
       <use xlink:href="#DejaVuSans-57" transform="translate(272.375 0)"/>
       <use xlink:href="#DejaVuSans-3" transform="translate(311.578125 0)"/>
       <use xlink:href="#DejaVuSans-12" transform="translate(343.359375 0)"/>
       <use xlink:href="#DejaVuSans-3" transform="translate(377.046875 0)"/>
       <use xlink:href="#DejaVuSans-45" transform="translate(408.828125 0)"/>
       <use xlink:href="#DejaVuSans-58" transform="translate(472.3125 0)"/>
       <use xlink:href="#DejaVuSans-4c" transform="translate(535.6875 0)"/>
       <use xlink:href="#DejaVuSans-4f" transform="translate(563.46875 0)"/>
       <use xlink:href="#DejaVuSans-57" transform="translate(591.25 0)"/>
      </g>
     </g>
    </g>
    <g id="ytick_2">
     <g id="line2d_10">
      <g>
       <use xlink:href="#m7baa21dd1d" x="95.75625" y="259.89211" style="stroke: #000000; stroke-width: 0.8"/>
      </g>
     </g>
     <g id="text_11">
      <!-- Monet / land -->
      <g transform="translate(26.28125 263.691329) scale(0.1 -0.1)">
       <use xlink:href="#DejaVuSans-30"/>
       <use xlink:href="#DejaVuSans-52" transform="translate(86.28125 0)"/>
       <use xlink:href="#DejaVuSans-51" transform="translate(147.46875 0)"/>
       <use xlink:href="#DejaVuSans-48" transform="translate(210.84375 0)"/>
       <use xlink:href="#DejaVuSans-57" transform="translate(272.375 0)"/>
       <use xlink:href="#DejaVuSans-3" transform="translate(311.578125 0)"/>
       <use xlink:href="#DejaVuSans-12" transform="translate(343.359375 0)"/>
       <use xlink:href="#DejaVuSans-3" transform="translate(377.046875 0)"/>
       <use xlink:href="#DejaVuSans-4f" transform="translate(408.828125 0)"/>
       <use xlink:href="#DejaVuSans-44" transform="translate(436.609375 0)"/>
       <use xlink:href="#DejaVuSans-51" transform="translate(497.890625 0)"/>
       <use xlink:href="#DejaVuSans-47" transform="translate(561.265625 0)"/>
      </g>
     </g>
    </g>
    <g id="ytick_3">
     <g id="line2d_11">
      <g>
       <use xlink:href="#m7baa21dd1d" x="95.75625" y="211.337809" style="stroke: #000000; stroke-width: 0.8"/>
      </g>
     </g>
     <g id="text_12">
      <!-- Monet / water -->
      <g transform="translate(19.382812 215.136637) scale(0.1 -0.1)">
       <use xlink:href="#DejaVuSans-30"/>
       <use xlink:href="#DejaVuSans-52" transform="translate(86.28125 0)"/>
       <use xlink:href="#DejaVuSans-51" transform="translate(147.46875 0)"/>
       <use xlink:href="#DejaVuSans-48" transform="translate(210.84375 0)"/>
       <use xlink:href="#DejaVuSans-57" transform="translate(272.375 0)"/>
       <use xlink:href="#DejaVuSans-3" transform="translate(311.578125 0)"/>
       <use xlink:href="#DejaVuSans-12" transform="translate(343.359375 0)"/>
       <use xlink:href="#DejaVuSans-3" transform="translate(377.046875 0)"/>
       <use xlink:href="#DejaVuSans-5a" transform="translate(408.828125 0)"/>
       <use xlink:href="#DejaVuSans-44" transform="translate(490.609375 0)"/>
       <use xlink:href="#DejaVuSans-57" transform="translate(551.890625 0)"/>
       <use xlink:href="#DejaVuSans-48" transform="translate(591.09375 0)"/>
       <use xlink:href="#DejaVuSans-55" transform="translate(652.625 0)"/>
      </g>
     </g>
    </g>
    <g id="ytick_4">
     <g id="line2d_12">
      <g>
       <use xlink:href="#m7baa21dd1d" x="95.75625" y="162.783508" style="stroke: #000000; stroke-width: 0.8"/>
      </g>
     </g>
     <g id="text_13">
      <!-- Cézanne / built -->
      <g transform="translate(13.528125 166.782727) scale(0.1 -0.1)">
       <defs>
        <path id="DejaVuSans-26" d="M 4122 4306 
L 4122 3641 
Q 3803 3938 3442 4084 
Q 3081 4231 2675 4231 
Q 1875 4231 1450 3742 
Q 1025 3253 1025 2328 
Q 1025 1406 1450 917 
Q 1875 428 2675 428 
Q 3081 428 3442 575 
Q 3803 722 4122 1019 
L 4122 359 
Q 3791 134 3420 21 
Q 3050 -91 2638 -91 
Q 1578 -91 968 557 
Q 359 1206 359 2328 
Q 359 3453 968 4101 
Q 1578 4750 2638 4750 
Q 3056 4750 3426 4639 
Q 3797 4528 4122 4306 
z
" transform="scale(0.015625)"/>
        <path id="DejaVuSans-ab" d="M 3597 1894 
L 3597 1613 
L 953 1613 
Q 991 1019 1311 708 
Q 1631 397 2203 397 
Q 2534 397 2845 478 
Q 3156 559 3463 722 
L 3463 178 
Q 3153 47 2828 -22 
Q 2503 -91 2169 -91 
Q 1331 -91 842 396 
Q 353 884 353 1716 
Q 353 2575 817 3079 
Q 1281 3584 2069 3584 
Q 2775 3584 3186 3129 
Q 3597 2675 3597 1894 
z
M 3022 2063 
Q 3016 2534 2758 2815 
Q 2500 3097 2075 3097 
Q 1594 3097 1305 2825 
Q 1016 2553 972 2059 
L 3022 2063 
z
M 2468 5119 
L 3090 5119 
L 2072 3944 
L 1593 3944 
L 2468 5119 
z
" transform="scale(0.015625)"/>
        <path id="DejaVuSans-5d" d="M 353 3500 
L 3084 3500 
L 3084 2975 
L 922 459 
L 3084 459 
L 3084 0 
L 275 0 
L 275 525 
L 2438 3041 
L 353 3041 
L 353 3500 
z
" transform="scale(0.015625)"/>
       </defs>
       <use xlink:href="#DejaVuSans-26"/>
       <use xlink:href="#DejaVuSans-ab" transform="translate(69.828125 0)"/>
       <use xlink:href="#DejaVuSans-5d" transform="translate(131.359375 0)"/>
       <use xlink:href="#DejaVuSans-44" transform="translate(183.84375 0)"/>
       <use xlink:href="#DejaVuSans-51" transform="translate(245.125 0)"/>
       <use xlink:href="#DejaVuSans-51" transform="translate(308.5 0)"/>
       <use xlink:href="#DejaVuSans-48" transform="translate(371.875 0)"/>
       <use xlink:href="#DejaVuSans-3" transform="translate(433.40625 0)"/>
       <use xlink:href="#DejaVuSans-12" transform="translate(465.1875 0)"/>
       <use xlink:href="#DejaVuSans-3" transform="translate(498.875 0)"/>
       <use xlink:href="#DejaVuSans-45" transform="translate(530.65625 0)"/>
       <use xlink:href="#DejaVuSans-58" transform="translate(594.140625 0)"/>
       <use xlink:href="#DejaVuSans-4c" transform="translate(657.515625 0)"/>
       <use xlink:href="#DejaVuSans-4f" transform="translate(685.296875 0)"/>
       <use xlink:href="#DejaVuSans-57" transform="translate(713.078125 0)"/>
      </g>
     </g>
    </g>
    <g id="ytick_5">
     <g id="line2d_13">
      <g>
       <use xlink:href="#m7baa21dd1d" x="95.75625" y="114.229206" style="stroke: #000000; stroke-width: 0.8"/>
      </g>
     </g>
     <g id="text_14">
      <!-- Cézanne / land -->
      <g transform="translate(14.098438 118.228425) scale(0.1 -0.1)">
       <use xlink:href="#DejaVuSans-26"/>
       <use xlink:href="#DejaVuSans-ab" transform="translate(69.828125 0)"/>
       <use xlink:href="#DejaVuSans-5d" transform="translate(131.359375 0)"/>
       <use xlink:href="#DejaVuSans-44" transform="translate(183.84375 0)"/>
       <use xlink:href="#DejaVuSans-51" transform="translate(245.125 0)"/>
       <use xlink:href="#DejaVuSans-51" transform="translate(308.5 0)"/>
       <use xlink:href="#DejaVuSans-48" transform="translate(371.875 0)"/>
       <use xlink:href="#DejaVuSans-3" transform="translate(433.40625 0)"/>
       <use xlink:href="#DejaVuSans-12" transform="translate(465.1875 0)"/>
       <use xlink:href="#DejaVuSans-3" transform="translate(498.875 0)"/>
       <use xlink:href="#DejaVuSans-4f" transform="translate(530.65625 0)"/>
       <use xlink:href="#DejaVuSans-44" transform="translate(558.4375 0)"/>
       <use xlink:href="#DejaVuSans-51" transform="translate(619.71875 0)"/>
       <use xlink:href="#DejaVuSans-47" transform="translate(683.09375 0)"/>
      </g>
     </g>
    </g>
    <g id="ytick_6">
     <g id="line2d_14">
      <g>
       <use xlink:href="#m7baa21dd1d" x="95.75625" y="65.674905" style="stroke: #000000; stroke-width: 0.8"/>
      </g>
     </g>
     <g id="text_15">
      <!-- Cézanne / water -->
      <g transform="translate(7.2 69.674124) scale(0.1 -0.1)">
       <use xlink:href="#DejaVuSans-26"/>
       <use xlink:href="#DejaVuSans-ab" transform="translate(69.828125 0)"/>
       <use xlink:href="#DejaVuSans-5d" transform="translate(131.359375 0)"/>
       <use xlink:href="#DejaVuSans-44" transform="translate(183.84375 0)"/>
       <use xlink:href="#DejaVuSans-51" transform="translate(245.125 0)"/>
       <use xlink:href="#DejaVuSans-51" transform="translate(308.5 0)"/>
       <use xlink:href="#DejaVuSans-48" transform="translate(371.875 0)"/>
       <use xlink:href="#DejaVuSans-3" transform="translate(433.40625 0)"/>
       <use xlink:href="#DejaVuSans-12" transform="translate(465.1875 0)"/>
       <use xlink:href="#DejaVuSans-3" transform="translate(498.875 0)"/>
       <use xlink:href="#DejaVuSans-5a" transform="translate(530.65625 0)"/>
       <use xlink:href="#DejaVuSans-44" transform="translate(612.4375 0)"/>
       <use xlink:href="#DejaVuSans-57" transform="translate(673.71875 0)"/>
       <use xlink:href="#DejaVuSans-48" transform="translate(712.921875 0)"/>
       <use xlink:href="#DejaVuSans-55" transform="translate(774.453125 0)"/>
      </g>
     </g>
    </g>
   </g>
   <g id="line2d_15">
    <path d="M 146.606494 317.186186 
L 245.97298 317.186186 
" clip-path="url(#p4c7c98ecd9)" style="fill: none; stroke: #0072b2; stroke-opacity: 0.8; stroke-linecap: square"/>
   </g>
   <g id="line2d_16">
    <path d="M 151.176002 317.186186 
L 192.107781 317.186186 
" clip-path="url(#p4c7c98ecd9)" style="fill: none; stroke: #0072b2; stroke-width: 4; stroke-linecap: square"/>
   </g>
   <g id="line2d_17">
    <defs>
     <path id="me4f2327e11" d="M 0 2 
C 0.530406 2 1.03916 1.789267 1.414214 1.414214 
C 1.789267 1.03916 2 0.530406 2 0 
C 2 -0.530406 1.789267 -1.03916 1.414214 -1.414214 
C 1.03916 -1.789267 0.530406 -2 0 -2 
C -0.530406 -2 -1.03916 -1.789267 -1.414214 -1.414214 
C -1.789267 -1.03916 -2 -0.530406 -2 0 
C -2 0.530406 -1.789267 1.03916 -1.414214 1.414214 
C -1.03916 1.789267 -0.530406 2 0 2 
z
" style="stroke: #0072b2"/>
    </defs>
    <g clip-path="url(#p4c7c98ecd9)">
     <use xlink:href="#me4f2327e11" x="163.425943" y="317.186186" style="fill: #0072b2; stroke: #0072b2"/>
    </g>
   </g>
   <g id="line2d_18">
    <path d="M 153.376733 268.631885 
L 423.235084 268.631885 
" clip-path="url(#p4c7c98ecd9)" style="fill: none; stroke: #0072b2; stroke-opacity: 0.8; stroke-linecap: square"/>
   </g>
   <g id="line2d_19">
    <path d="M 197.200129 268.631885 
L 263.873809 268.631885 
" clip-path="url(#p4c7c98ecd9)" style="fill: none; stroke: #0072b2; stroke-width: 4; stroke-linecap: square"/>
   </g>
   <g id="line2d_20">
    <g clip-path="url(#p4c7c98ecd9)">
     <use xlink:href="#me4f2327e11" x="230.736492" y="268.631885" style="fill: #0072b2; stroke: #0072b2"/>
    </g>
   </g>
   <g id="line2d_21">
    <path d="M 112.609893 220.077583 
L 438.217026 220.077583 
" clip-path="url(#p4c7c98ecd9)" style="fill: none; stroke: #0072b2; stroke-opacity: 0.8; stroke-linecap: square"/>
   </g>
   <g id="line2d_22">
    <path d="M 159.158602 220.077583 
L 186.75462 220.077583 
" clip-path="url(#p4c7c98ecd9)" style="fill: none; stroke: #0072b2; stroke-width: 4; stroke-linecap: square"/>
   </g>
   <g id="line2d_23">
    <g clip-path="url(#p4c7c98ecd9)">
     <use xlink:href="#me4f2327e11" x="174.929824" y="220.077583" style="fill: #0072b2; stroke: #0072b2"/>
    </g>
   </g>
   <g id="line2d_24">
    <path d="M 145.239774 171.523282 
L 429.2355 171.523282 
" clip-path="url(#p4c7c98ecd9)" style="fill: none; stroke: #0072b2; stroke-opacity: 0.8; stroke-linecap: square"/>
   </g>
   <g id="line2d_25">
    <path d="M 201.743709 171.523282 
L 251.033207 171.523282 
" clip-path="url(#p4c7c98ecd9)" style="fill: none; stroke: #0072b2; stroke-width: 4; stroke-linecap: square"/>
   </g>
   <g id="line2d_26">
    <g clip-path="url(#p4c7c98ecd9)">
     <use xlink:href="#me4f2327e11" x="232.872638" y="171.523282" style="fill: #0072b2; stroke: #0072b2"/>
    </g>
   </g>
   <g id="line2d_27">
    <path d="M 181.396594 122.968981 
L 345.528591 122.968981 
" clip-path="url(#p4c7c98ecd9)" style="fill: none; stroke: #0072b2; stroke-opacity: 0.8; stroke-linecap: square"/>
   </g>
   <g id="line2d_28">
    <path d="M 196.970015 122.968981 
L 259.971123 122.968981 
" clip-path="url(#p4c7c98ecd9)" style="fill: none; stroke: #0072b2; stroke-width: 4; stroke-linecap: square"/>
   </g>
   <g id="line2d_29">
    <g clip-path="url(#p4c7c98ecd9)">
     <use xlink:href="#me4f2327e11" x="223.058652" y="122.968981" style="fill: #0072b2; stroke: #0072b2"/>
    </g>
   </g>
   <g id="line2d_30">
    <path d="M 181.670383 74.414679 
L 235.000024 74.414679 
" clip-path="url(#p4c7c98ecd9)" style="fill: none; stroke: #0072b2; stroke-opacity: 0.8; stroke-linecap: square"/>
   </g>
   <g id="line2d_31">
    <path d="M 191.537522 74.414679 
L 218.202343 74.414679 
" clip-path="url(#p4c7c98ecd9)" style="fill: none; stroke: #0072b2; stroke-width: 4; stroke-linecap: square"/>
   </g>
   <g id="line2d_32">
    <g clip-path="url(#p4c7c98ecd9)">
     <use xlink:href="#me4f2327e11" x="201.404661" y="74.414679" style="fill: #0072b2; stroke: #0072b2"/>
    </g>
   </g>
   <g id="line2d_33">
    <path d="M 146.57059 308.446412 
L 246.253679 308.446412 
" clip-path="url(#p4c7c98ecd9)" style="fill: none; stroke: #d55e00; stroke-opacity: 0.8; stroke-linecap: square"/>
   </g>
   <g id="line2d_34">
    <path d="M 151.325721 308.446412 
L 192.049509 308.446412 
" clip-path="url(#p4c7c98ecd9)" style="fill: none; stroke: #d55e00; stroke-width: 4; stroke-linecap: square"/>
   </g>
   <g id="line2d_35">
    <defs>
     <path id="m38bdc85b48" d="M 0 2 
C 0.530406 2 1.03916 1.789267 1.414214 1.414214 
C 1.789267 1.03916 2 0.530406 2 0 
C 2 -0.530406 1.789267 -1.03916 1.414214 -1.414214 
C 1.03916 -1.789267 0.530406 -2 0 -2 
C -0.530406 -2 -1.03916 -1.789267 -1.414214 -1.414214 
C -1.789267 -1.03916 -2 -0.530406 -2 0 
C -2 0.530406 -1.789267 1.03916 -1.414214 1.414214 
C -1.03916 1.789267 -0.530406 2 0 2 
z
" style="stroke: #d55e00"/>
    </defs>
    <g clip-path="url(#p4c7c98ecd9)">
     <use xlink:href="#m38bdc85b48" x="163.446109" y="308.446412" style="fill: #d55e00; stroke: #d55e00"/>
    </g>
   </g>
   <g id="line2d_36">
    <path d="M 153.114908 259.89211 
L 424.082799 259.89211 
" clip-path="url(#p4c7c98ecd9)" style="fill: none; stroke: #d55e00; stroke-opacity: 0.8; stroke-linecap: square"/>
   </g>
   <g id="line2d_37">
    <path d="M 196.448942 259.89211 
L 263.614383 259.89211 
" clip-path="url(#p4c7c98ecd9)" style="fill: none; stroke: #d55e00; stroke-width: 4; stroke-linecap: square"/>
   </g>
   <g id="line2d_38">
    <g clip-path="url(#p4c7c98ecd9)">
     <use xlink:href="#m38bdc85b48" x="230.624209" y="259.89211" style="fill: #d55e00; stroke: #d55e00"/>
    </g>
   </g>
   <g id="line2d_39">
    <path d="M 112.751434 211.337809 
L 438.037865 211.337809 
" clip-path="url(#p4c7c98ecd9)" style="fill: none; stroke: #d55e00; stroke-opacity: 0.8; stroke-linecap: square"/>
   </g>
   <g id="line2d_40">
    <path d="M 158.341475 211.337809 
L 186.970411 211.337809 
" clip-path="url(#p4c7c98ecd9)" style="fill: none; stroke: #d55e00; stroke-width: 4; stroke-linecap: square"/>
   </g>
   <g id="line2d_41">
    <g clip-path="url(#p4c7c98ecd9)">
     <use xlink:href="#m38bdc85b48" x="174.715093" y="211.337809" style="fill: #d55e00; stroke: #d55e00"/>
    </g>
   </g>
   <g id="line2d_42">
    <path d="M 145.279543 162.783508 
L 428.729939 162.783508 
" clip-path="url(#p4c7c98ecd9)" style="fill: none; stroke: #d55e00; stroke-opacity: 0.8; stroke-linecap: square"/>
   </g>
   <g id="line2d_43">
    <path d="M 201.669964 162.783508 
L 251.024894 162.783508 
" clip-path="url(#p4c7c98ecd9)" style="fill: none; stroke: #d55e00; stroke-width: 4; stroke-linecap: square"/>
   </g>
   <g id="line2d_44">
    <g clip-path="url(#p4c7c98ecd9)">
     <use xlink:href="#m38bdc85b48" x="231.589611" y="162.783508" style="fill: #d55e00; stroke: #d55e00"/>
    </g>
   </g>
   <g id="line2d_45">
    <path d="M 181.61628 114.229206 
L 345.236002 114.229206 
" clip-path="url(#p4c7c98ecd9)" style="fill: none; stroke: #d55e00; stroke-opacity: 0.8; stroke-linecap: square"/>
   </g>
   <g id="line2d_46">
    <path d="M 196.807794 114.229206 
L 259.720916 114.229206 
" clip-path="url(#p4c7c98ecd9)" style="fill: none; stroke: #d55e00; stroke-width: 4; stroke-linecap: square"/>
   </g>
   <g id="line2d_47">
    <g clip-path="url(#p4c7c98ecd9)">
     <use xlink:href="#m38bdc85b48" x="222.324756" y="114.229206" style="fill: #d55e00; stroke: #d55e00"/>
    </g>
   </g>
   <g id="line2d_48">
    <path d="M 181.645427 65.674905 
L 237.550194 65.674905 
" clip-path="url(#p4c7c98ecd9)" style="fill: none; stroke: #d55e00; stroke-opacity: 0.8; stroke-linecap: square"/>
   </g>
   <g id="line2d_49">
    <path d="M 191.122054 65.674905 
L 219.074438 65.674905 
" clip-path="url(#p4c7c98ecd9)" style="fill: none; stroke: #d55e00; stroke-width: 4; stroke-linecap: square"/>
   </g>
   <g id="line2d_50">
    <g clip-path="url(#p4c7c98ecd9)">
     <use xlink:href="#m38bdc85b48" x="200.598682" y="65.674905" style="fill: #d55e00; stroke: #d55e00"/>
    </g>
   </g>
   <g id="line2d_51">
    <path d="M 146.347157 299.706638 
L 245.961245 299.706638 
" clip-path="url(#p4c7c98ecd9)" style="fill: none; stroke: #009e73; stroke-opacity: 0.8; stroke-linecap: square"/>
   </g>
   <g id="line2d_52">
    <path d="M 150.122089 299.706638 
L 192.001629 299.706638 
" clip-path="url(#p4c7c98ecd9)" style="fill: none; stroke: #009e73; stroke-width: 4; stroke-linecap: square"/>
   </g>
   <g id="line2d_53">
    <defs>
     <path id="mdc89799189" d="M 0 2 
C 0.530406 2 1.03916 1.789267 1.414214 1.414214 
C 1.789267 1.03916 2 0.530406 2 0 
C 2 -0.530406 1.789267 -1.03916 1.414214 -1.414214 
C 1.03916 -1.789267 0.530406 -2 0 -2 
C -0.530406 -2 -1.03916 -1.789267 -1.414214 -1.414214 
C -1.789267 -1.03916 -2 -0.530406 -2 0 
C -2 0.530406 -1.789267 1.03916 -1.414214 1.414214 
C -1.03916 1.789267 -0.530406 2 0 2 
z
" style="stroke: #009e73"/>
    </defs>
    <g clip-path="url(#p4c7c98ecd9)">
     <use xlink:href="#mdc89799189" x="162.697745" y="299.706638" style="fill: #009e73; stroke: #009e73"/>
    </g>
   </g>
   <g id="line2d_54">
    <path d="M 150.18079 251.152336 
L 421.358159 251.152336 
" clip-path="url(#p4c7c98ecd9)" style="fill: none; stroke: #009e73; stroke-opacity: 0.8; stroke-linecap: square"/>
   </g>
   <g id="line2d_55">
    <path d="M 194.514609 251.152336 
L 262.815733 251.152336 
" clip-path="url(#p4c7c98ecd9)" style="fill: none; stroke: #009e73; stroke-width: 4; stroke-linecap: square"/>
   </g>
   <g id="line2d_56">
    <g clip-path="url(#p4c7c98ecd9)">
     <use xlink:href="#mdc89799189" x="230.286914" y="251.152336" style="fill: #009e73; stroke: #009e73"/>
    </g>
   </g>
   <g id="line2d_57">
    <path d="M 112.063906 202.598035 
L 438.025275 202.598035 
" clip-path="url(#p4c7c98ecd9)" style="fill: none; stroke: #009e73; stroke-opacity: 0.8; stroke-linecap: square"/>
   </g>
   <g id="line2d_58">
    <path d="M 156.514656 202.598035 
L 186.270092 202.598035 
" clip-path="url(#p4c7c98ecd9)" style="fill: none; stroke: #009e73; stroke-width: 4; stroke-linecap: square"/>
   </g>
   <g id="line2d_59">
    <g clip-path="url(#p4c7c98ecd9)">
     <use xlink:href="#mdc89799189" x="173.362745" y="202.598035" style="fill: #009e73; stroke: #009e73"/>
    </g>
   </g>
   <g id="line2d_60">
    <path d="M 144.903494 154.043734 
L 426.87269 154.043734 
" clip-path="url(#p4c7c98ecd9)" style="fill: none; stroke: #009e73; stroke-opacity: 0.8; stroke-linecap: square"/>
   </g>
   <g id="line2d_61">
    <path d="M 200.926847 154.043734 
L 249.940802 154.043734 
" clip-path="url(#p4c7c98ecd9)" style="fill: none; stroke: #009e73; stroke-width: 4; stroke-linecap: square"/>
   </g>
   <g id="line2d_62">
    <g clip-path="url(#p4c7c98ecd9)">
     <use xlink:href="#mdc89799189" x="228.939606" y="154.043734" style="fill: #009e73; stroke: #009e73"/>
    </g>
   </g>
   <g id="line2d_63">
    <path d="M 180.743958 105.489432 
L 344.668043 105.489432 
" clip-path="url(#p4c7c98ecd9)" style="fill: none; stroke: #009e73; stroke-opacity: 0.8; stroke-linecap: square"/>
   </g>
   <g id="line2d_64">
    <path d="M 195.723447 105.489432 
L 259.121138 105.489432 
" clip-path="url(#p4c7c98ecd9)" style="fill: none; stroke: #009e73; stroke-width: 4; stroke-linecap: square"/>
   </g>
   <g id="line2d_65">
    <g clip-path="url(#p4c7c98ecd9)">
     <use xlink:href="#mdc89799189" x="222.42945" y="105.489432" style="fill: #009e73; stroke: #009e73"/>
    </g>
   </g>
   <g id="line2d_66">
    <path d="M 181.253436 56.935131 
L 233.165022 56.935131 
" clip-path="url(#p4c7c98ecd9)" style="fill: none; stroke: #009e73; stroke-opacity: 0.8; stroke-linecap: square"/>
   </g>
   <g id="line2d_67">
    <path d="M 190.312335 56.935131 
L 216.268128 56.935131 
" clip-path="url(#p4c7c98ecd9)" style="fill: none; stroke: #009e73; stroke-width: 4; stroke-linecap: square"/>
   </g>
   <g id="line2d_68">
    <g clip-path="url(#p4c7c98ecd9)">
     <use xlink:href="#mdc89799189" x="199.371234" y="56.935131" style="fill: #009e73; stroke: #009e73"/>
    </g>
   </g>
   <g id="patch_3">
    <path d="M 95.75625 330.198739 
L 95.75625 43.922578 
" style="fill: none; stroke: #000000; stroke-width: 0.8; stroke-linejoin: miter; stroke-linecap: square"/>
   </g>
   <g id="patch_4">
    <path d="M 454.524682 330.198739 
L 454.524682 43.922578 
" style="fill: none; stroke: #000000; stroke-width: 0.8; stroke-linejoin: miter; stroke-linecap: square"/>
   </g>
   <g id="patch_5">
    <path d="M 95.75625 330.198739 
L 454.524682 330.198739 
" style="fill: none; stroke: #000000; stroke-width: 0.8; stroke-linejoin: miter; stroke-linecap: square"/>
   </g>
   <g id="patch_6">
    <path d="M 95.75625 43.922578 
L 454.524682 43.922578 
" style="fill: none; stroke: #000000; stroke-width: 0.8; stroke-linejoin: miter; stroke-linecap: square"/>
   </g>
   <g id="text_16">
    <!-- Finite reference ranges by broad content -->
    <g transform="translate(152.556716 17.519297) scale(0.12 -0.12)">
     <defs>
      <path id="DejaVuSans-29" d="M 628 4666 
L 3309 4666 
L 3309 4134 
L 1259 4134 
L 1259 2759 
L 3109 2759 
L 3109 2228 
L 1259 2228 
L 1259 0 
L 628 0 
L 628 4666 
z
" transform="scale(0.015625)"/>
      <path id="DejaVuSans-4a" d="M 2906 1791 
Q 2906 2416 2648 2759 
Q 2391 3103 1925 3103 
Q 1463 3103 1205 2759 
Q 947 2416 947 1791 
Q 947 1169 1205 825 
Q 1463 481 1925 481 
Q 2391 481 2648 825 
Q 2906 1169 2906 1791 
z
M 3481 434 
Q 3481 -459 3084 -895 
Q 2688 -1331 1869 -1331 
Q 1566 -1331 1297 -1286 
Q 1028 -1241 775 -1147 
L 775 -588 
Q 1028 -725 1275 -790 
Q 1522 -856 1778 -856 
Q 2344 -856 2625 -561 
Q 2906 -266 2906 331 
L 2906 616 
Q 2728 306 2450 153 
Q 2172 0 1784 0 
Q 1141 0 747 490 
Q 353 981 353 1791 
Q 353 2603 747 3093 
Q 1141 3584 1784 3584 
Q 2172 3584 2450 3431 
Q 2728 3278 2906 2969 
L 2906 3500 
L 3481 3500 
L 3481 434 
z
" transform="scale(0.015625)"/>
      <path id="DejaVuSans-5c" d="M 2059 -325 
Q 1816 -950 1584 -1140 
Q 1353 -1331 966 -1331 
L 506 -1331 
L 506 -850 
L 844 -850 
Q 1081 -850 1212 -737 
Q 1344 -625 1503 -206 
L 1606 56 
L 191 3500 
L 800 3500 
L 1894 763 
L 2988 3500 
L 3597 3500 
L 2059 -325 
z
" transform="scale(0.015625)"/>
     </defs>
     <use xlink:href="#DejaVuSans-29"/>
     <use xlink:href="#DejaVuSans-4c" transform="translate(50.234375 0)"/>
     <use xlink:href="#DejaVuSans-51" transform="translate(78.015625 0)"/>
     <use xlink:href="#DejaVuSans-4c" transform="translate(141.390625 0)"/>
     <use xlink:href="#DejaVuSans-57" transform="translate(169.171875 0)"/>
     <use xlink:href="#DejaVuSans-48" transform="translate(208.375 0)"/>
     <use xlink:href="#DejaVuSans-3" transform="translate(269.90625 0)"/>
     <use xlink:href="#DejaVuSans-55" transform="translate(301.6875 0)"/>
     <use xlink:href="#DejaVuSans-48" transform="translate(340.59375 0)"/>
     <use xlink:href="#DejaVuSans-49" transform="translate(402.125 0)"/>
     <use xlink:href="#DejaVuSans-48" transform="translate(437.328125 0)"/>
     <use xlink:href="#DejaVuSans-55" transform="translate(498.859375 0)"/>
     <use xlink:href="#DejaVuSans-48" transform="translate(537.765625 0)"/>
     <use xlink:href="#DejaVuSans-51" transform="translate(599.296875 0)"/>
     <use xlink:href="#DejaVuSans-46" transform="translate(662.671875 0)"/>
     <use xlink:href="#DejaVuSans-48" transform="translate(717.65625 0)"/>
     <use xlink:href="#DejaVuSans-3" transform="translate(779.1875 0)"/>
     <use xlink:href="#DejaVuSans-55" transform="translate(810.96875 0)"/>
     <use xlink:href="#DejaVuSans-44" transform="translate(852.078125 0)"/>
     <use xlink:href="#DejaVuSans-51" transform="translate(913.359375 0)"/>
     <use xlink:href="#DejaVuSans-4a" transform="translate(976.734375 0)"/>
     <use xlink:href="#DejaVuSans-48" transform="translate(1040.21875 0)"/>
     <use xlink:href="#DejaVuSans-56" transform="translate(1101.75 0)"/>
     <use xlink:href="#DejaVuSans-3" transform="translate(1153.84375 0)"/>
     <use xlink:href="#DejaVuSans-45" transform="translate(1185.625 0)"/>
     <use xlink:href="#DejaVuSans-5c" transform="translate(1249.109375 0)"/>
     <use xlink:href="#DejaVuSans-3" transform="translate(1308.296875 0)"/>
     <use xlink:href="#DejaVuSans-45" transform="translate(1340.078125 0)"/>
     <use xlink:href="#DejaVuSans-55" transform="translate(1403.5625 0)"/>
     <use xlink:href="#DejaVuSans-52" transform="translate(1442.46875 0)"/>
     <use xlink:href="#DejaVuSans-44" transform="translate(1503.65625 0)"/>
     <use xlink:href="#DejaVuSans-47" transform="translate(1564.9375 0)"/>
     <use xlink:href="#DejaVuSans-3" transform="translate(1628.421875 0)"/>
     <use xlink:href="#DejaVuSans-46" transform="translate(1660.203125 0)"/>
     <use xlink:href="#DejaVuSans-52" transform="translate(1715.1875 0)"/>
     <use xlink:href="#DejaVuSans-51" transform="translate(1776.375 0)"/>
     <use xlink:href="#DejaVuSans-57" transform="translate(1839.75 0)"/>
     <use xlink:href="#DejaVuSans-48" transform="translate(1878.953125 0)"/>
     <use xlink:href="#DejaVuSans-51" transform="translate(1940.484375 0)"/>
     <use xlink:href="#DejaVuSans-57" transform="translate(2003.859375 0)"/>
    </g>
    <!-- Line: min/max; thick: IQR; dot: median -->
    <g transform="translate(159.006716 31.922578) scale(0.12 -0.12)">
     <defs>
      <path id="DejaVuSans-2f" d="M 628 4666 
L 1259 4666 
L 1259 531 
L 3531 531 
L 3531 0 
L 628 0 
L 628 4666 
z
" transform="scale(0.015625)"/>
      <path id="DejaVuSans-1d" d="M 750 794 
L 1409 794 
L 1409 0 
L 750 0 
L 750 794 
z
M 750 3309 
L 1409 3309 
L 1409 2516 
L 750 2516 
L 750 3309 
z
" transform="scale(0.015625)"/>
      <path id="DejaVuSans-5b" d="M 3513 3500 
L 2247 1797 
L 3578 0 
L 2900 0 
L 1881 1375 
L 863 0 
L 184 0 
L 1544 1831 
L 300 3500 
L 978 3500 
L 1906 2253 
L 2834 3500 
L 3513 3500 
z
" transform="scale(0.015625)"/>
      <path id="DejaVuSans-1e" d="M 750 3309 
L 1409 3309 
L 1409 2516 
L 750 2516 
L 750 3309 
z
M 750 794 
L 1409 794 
L 1409 256 
L 897 -744 
L 494 -744 
L 750 256 
L 750 794 
z
" transform="scale(0.015625)"/>
      <path id="DejaVuSans-4e" d="M 581 4863 
L 1159 4863 
L 1159 1991 
L 2875 3500 
L 3609 3500 
L 1753 1863 
L 3688 0 
L 2938 0 
L 1159 1709 
L 1159 0 
L 581 0 
L 581 4863 
z
" transform="scale(0.015625)"/>
      <path id="DejaVuSans-2c" d="M 628 4666 
L 1259 4666 
L 1259 0 
L 628 0 
L 628 4666 
z
" transform="scale(0.015625)"/>
      <path id="DejaVuSans-34" d="M 2522 4238 
Q 1834 4238 1429 3725 
Q 1025 3213 1025 2328 
Q 1025 1447 1429 934 
Q 1834 422 2522 422 
Q 3209 422 3611 934 
Q 4013 1447 4013 2328 
Q 4013 3213 3611 3725 
Q 3209 4238 2522 4238 
z
M 3406 84 
L 4238 -825 
L 3475 -825 
L 2784 -78 
Q 2681 -84 2626 -87 
Q 2572 -91 2522 -91 
Q 1538 -91 948 567 
Q 359 1225 359 2328 
Q 359 3434 948 4092 
Q 1538 4750 2522 4750 
Q 3503 4750 4090 4092 
Q 4678 3434 4678 2328 
Q 4678 1516 4351 937 
Q 4025 359 3406 84 
z
" transform="scale(0.015625)"/>
      <path id="DejaVuSans-35" d="M 2841 2188 
Q 3044 2119 3236 1894 
Q 3428 1669 3622 1275 
L 4263 0 
L 3584 0 
L 2988 1197 
Q 2756 1666 2539 1819 
Q 2322 1972 1947 1972 
L 1259 1972 
L 1259 0 
L 628 0 
L 628 4666 
L 2053 4666 
Q 2853 4666 3247 4331 
Q 3641 3997 3641 3322 
Q 3641 2881 3436 2590 
Q 3231 2300 2841 2188 
z
M 1259 4147 
L 1259 2491 
L 2053 2491 
Q 2509 2491 2742 2702 
Q 2975 2913 2975 3322 
Q 2975 3731 2742 3939 
Q 2509 4147 2053 4147 
L 1259 4147 
z
" transform="scale(0.015625)"/>
     </defs>
     <use xlink:href="#DejaVuSans-2f"/>
     <use xlink:href="#DejaVuSans-4c" transform="translate(55.71875 0)"/>
     <use xlink:href="#DejaVuSans-51" transform="translate(83.5 0)"/>
     <use xlink:href="#DejaVuSans-48" transform="translate(146.875 0)"/>
     <use xlink:href="#DejaVuSans-1d" transform="translate(208.40625 0)"/>
     <use xlink:href="#DejaVuSans-3" transform="translate(242.09375 0)"/>
     <use xlink:href="#DejaVuSans-50" transform="translate(273.875 0)"/>
     <use xlink:href="#DejaVuSans-4c" transform="translate(371.28125 0)"/>
     <use xlink:href="#DejaVuSans-51" transform="translate(399.0625 0)"/>
     <use xlink:href="#DejaVuSans-12" transform="translate(462.4375 0)"/>
     <use xlink:href="#DejaVuSans-50" transform="translate(496.125 0)"/>
     <use xlink:href="#DejaVuSans-44" transform="translate(593.53125 0)"/>
     <use xlink:href="#DejaVuSans-5b" transform="translate(654.8125 0)"/>
     <use xlink:href="#DejaVuSans-1e" transform="translate(714 0)"/>
     <use xlink:href="#DejaVuSans-3" transform="translate(747.6875 0)"/>
     <use xlink:href="#DejaVuSans-57" transform="translate(779.46875 0)"/>
     <use xlink:href="#DejaVuSans-4b" transform="translate(818.671875 0)"/>
     <use xlink:href="#DejaVuSans-4c" transform="translate(882.046875 0)"/>
     <use xlink:href="#DejaVuSans-46" transform="translate(909.828125 0)"/>
     <use xlink:href="#DejaVuSans-4e" transform="translate(964.8125 0)"/>
     <use xlink:href="#DejaVuSans-1d" transform="translate(1022.71875 0)"/>
     <use xlink:href="#DejaVuSans-3" transform="translate(1056.40625 0)"/>
     <use xlink:href="#DejaVuSans-2c" transform="translate(1088.1875 0)"/>
     <use xlink:href="#DejaVuSans-34" transform="translate(1117.6875 0)"/>
     <use xlink:href="#DejaVuSans-35" transform="translate(1196.40625 0)"/>
     <use xlink:href="#DejaVuSans-1e" transform="translate(1265.890625 0)"/>
     <use xlink:href="#DejaVuSans-3" transform="translate(1299.578125 0)"/>
     <use xlink:href="#DejaVuSans-47" transform="translate(1331.359375 0)"/>
     <use xlink:href="#DejaVuSans-52" transform="translate(1394.84375 0)"/>
     <use xlink:href="#DejaVuSans-57" transform="translate(1456.03125 0)"/>
     <use xlink:href="#DejaVuSans-1d" transform="translate(1495.234375 0)"/>
     <use xlink:href="#DejaVuSans-3" transform="translate(1528.921875 0)"/>
     <use xlink:href="#DejaVuSans-50" transform="translate(1560.703125 0)"/>
     <use xlink:href="#DejaVuSans-48" transform="translate(1658.109375 0)"/>
     <use xlink:href="#DejaVuSans-47" transform="translate(1719.640625 0)"/>
     <use xlink:href="#DejaVuSans-4c" transform="translate(1783.125 0)"/>
     <use xlink:href="#DejaVuSans-44" transform="translate(1810.90625 0)"/>
     <use xlink:href="#DejaVuSans-51" transform="translate(1872.1875 0)"/>
    </g>
   </g>
   <g id="legend_1">
    <g id="patch_7">
     <path d="M 392.164682 100.325234 
L 448.924682 100.325234 
Q 450.524682 100.325234 450.524682 98.725234 
L 450.524682 49.522578 
Q 450.524682 47.922578 448.924682 47.922578 
L 392.164682 47.922578 
Q 390.564682 47.922578 390.564682 49.522578 
L 390.564682 98.725234 
Q 390.564682 100.325234 392.164682 100.325234 
z
" style="fill: #ffffff; opacity: 0.8; stroke: #cccccc; stroke-linejoin: miter"/>
    </g>
    <g id="text_17">
     <!-- Processing -->
     <g transform="translate(393.845463 58.721016) scale(0.1 -0.1)">
      <defs>
       <path id="DejaVuSans-33" d="M 1259 4147 
L 1259 2394 
L 2053 2394 
Q 2494 2394 2734 2622 
Q 2975 2850 2975 3272 
Q 2975 3691 2734 3919 
Q 2494 4147 2053 4147 
L 1259 4147 
z
M 628 4666 
L 2053 4666 
Q 2838 4666 3239 4311 
Q 3641 3956 3641 3272 
Q 3641 2581 3239 2228 
Q 2838 1875 2053 1875 
L 1259 1875 
L 1259 0 
L 628 0 
L 628 4666 
z
" transform="scale(0.015625)"/>
      </defs>
      <use xlink:href="#DejaVuSans-33"/>
      <use xlink:href="#DejaVuSans-55" transform="translate(58.546875 0)"/>
      <use xlink:href="#DejaVuSans-52" transform="translate(97.453125 0)"/>
      <use xlink:href="#DejaVuSans-46" transform="translate(158.640625 0)"/>
      <use xlink:href="#DejaVuSans-48" transform="translate(213.625 0)"/>
      <use xlink:href="#DejaVuSans-56" transform="translate(275.15625 0)"/>
      <use xlink:href="#DejaVuSans-56" transform="translate(327.25 0)"/>
      <use xlink:href="#DejaVuSans-4c" transform="translate(379.34375 0)"/>
      <use xlink:href="#DejaVuSans-51" transform="translate(407.125 0)"/>
      <use xlink:href="#DejaVuSans-4a" transform="translate(470.5 0)"/>
     </g>
    </g>
    <g id="line2d_69">
     <g>
      <use xlink:href="#me4f2327e11" x="401.764682" y="68.402109" style="fill: #0072b2; stroke: #0072b2"/>
     </g>
    </g>
    <g id="text_18">
     <!-- 512 -->
     <g transform="translate(416.164682 71.202109) scale(0.08 -0.08)">
      <use xlink:href="#DejaVuSans-18"/>
      <use xlink:href="#DejaVuSans-14" transform="translate(63.625 0)"/>
      <use xlink:href="#DejaVuSans-15" transform="translate(127.25 0)"/>
     </g>
    </g>
    <g id="line2d_70">
     <g>
      <use xlink:href="#m38bdc85b48" x="401.764682" y="80.402734" style="fill: #d55e00; stroke: #d55e00"/>
     </g>
    </g>
    <g id="text_19">
     <!-- 256 -->
     <g transform="translate(416.164682 83.202734) scale(0.08 -0.08)">
      <defs>
       <path id="DejaVuSans-19" d="M 2113 2584 
Q 1688 2584 1439 2293 
Q 1191 2003 1191 1497 
Q 1191 994 1439 701 
Q 1688 409 2113 409 
Q 2538 409 2786 701 
Q 3034 994 3034 1497 
Q 3034 2003 2786 2293 
Q 2538 2584 2113 2584 
z
M 3366 4563 
L 3366 3988 
Q 3128 4100 2886 4159 
Q 2644 4219 2406 4219 
Q 1781 4219 1451 3797 
Q 1122 3375 1075 2522 
Q 1259 2794 1537 2939 
Q 1816 3084 2150 3084 
Q 2853 3084 3261 2657 
Q 3669 2231 3669 1497 
Q 3669 778 3244 343 
Q 2819 -91 2113 -91 
Q 1303 -91 875 529 
Q 447 1150 447 2328 
Q 447 3434 972 4092 
Q 1497 4750 2381 4750 
Q 2619 4750 2861 4703 
Q 3103 4656 3366 4563 
z
" transform="scale(0.015625)"/>
      </defs>
      <use xlink:href="#DejaVuSans-15"/>
      <use xlink:href="#DejaVuSans-18" transform="translate(63.625 0)"/>
      <use xlink:href="#DejaVuSans-19" transform="translate(127.25 0)"/>
     </g>
    </g>
    <g id="line2d_71">
     <g>
      <use xlink:href="#mdc89799189" x="401.764682" y="92.403359" style="fill: #009e73; stroke: #009e73"/>
     </g>
    </g>
    <g id="text_20">
     <!-- JPEG 90 -->
     <g transform="translate(416.164682 95.203359) scale(0.08 -0.08)">
      <defs>
       <path id="DejaVuSans-2d" d="M 628 4666 
L 1259 4666 
L 1259 325 
Q 1259 -519 939 -900 
Q 619 -1281 -91 -1281 
L -331 -1281 
L -331 -750 
L -134 -750 
Q 284 -750 456 -515 
Q 628 -281 628 325 
L 628 4666 
z
" transform="scale(0.015625)"/>
       <path id="DejaVuSans-28" d="M 628 4666 
L 3578 4666 
L 3578 4134 
L 1259 4134 
L 1259 2753 
L 3481 2753 
L 3481 2222 
L 1259 2222 
L 1259 531 
L 3634 531 
L 3634 0 
L 628 0 
L 628 4666 
z
" transform="scale(0.015625)"/>
       <path id="DejaVuSans-2a" d="M 3809 666 
L 3809 1919 
L 2778 1919 
L 2778 2438 
L 4434 2438 
L 4434 434 
Q 4069 175 3628 42 
Q 3188 -91 2688 -91 
Q 1594 -91 976 548 
Q 359 1188 359 2328 
Q 359 3472 976 4111 
Q 1594 4750 2688 4750 
Q 3144 4750 3555 4637 
Q 3966 4525 4313 4306 
L 4313 3634 
Q 3963 3931 3569 4081 
Q 3175 4231 2741 4231 
Q 1884 4231 1454 3753 
Q 1025 3275 1025 2328 
Q 1025 1384 1454 906 
Q 1884 428 2741 428 
Q 3075 428 3337 486 
Q 3600 544 3809 666 
z
" transform="scale(0.015625)"/>
       <path id="DejaVuSans-1c" d="M 703 97 
L 703 672 
Q 941 559 1184 500 
Q 1428 441 1663 441 
Q 2288 441 2617 861 
Q 2947 1281 2994 2138 
Q 2813 1869 2534 1725 
Q 2256 1581 1919 1581 
Q 1219 1581 811 2004 
Q 403 2428 403 3163 
Q 403 3881 828 4315 
Q 1253 4750 1959 4750 
Q 2769 4750 3195 4129 
Q 3622 3509 3622 2328 
Q 3622 1225 3098 567 
Q 2575 -91 1691 -91 
Q 1453 -91 1209 -44 
Q 966 3 703 97 
z
M 1959 2075 
Q 2384 2075 2632 2365 
Q 2881 2656 2881 3163 
Q 2881 3666 2632 3958 
Q 2384 4250 1959 4250 
Q 1534 4250 1286 3958 
Q 1038 3666 1038 3163 
Q 1038 2656 1286 2365 
Q 1534 2075 1959 2075 
z
" transform="scale(0.015625)"/>
      </defs>
      <use xlink:href="#DejaVuSans-2d"/>
      <use xlink:href="#DejaVuSans-33" transform="translate(29.5 0)"/>
      <use xlink:href="#DejaVuSans-28" transform="translate(89.796875 0)"/>
      <use xlink:href="#DejaVuSans-2a" transform="translate(152.984375 0)"/>
      <use xlink:href="#DejaVuSans-3" transform="translate(230.46875 0)"/>
      <use xlink:href="#DejaVuSans-1c" transform="translate(262.25 0)"/>
      <use xlink:href="#DejaVuSans-13" transform="translate(325.875 0)"/>
     </g>
    </g>
   </g>
  </g>
  <g id="axes_2">
   <g id="patch_8">
    <path d="M 506.431088 330.198739 
L 865.19952 330.198739 
L 865.19952 43.922578 
L 506.431088 43.922578 
z
" style="fill: #ffffff"/>
   </g>
   <g id="PathCollection_1">
    <defs>
     <path id="m1d300e6284" d="M 0 1.870829 
C 0.49615 1.870829 0.972045 1.673706 1.322876 1.322876 
C 1.673706 0.972045 1.870829 0.49615 1.870829 0 
C 1.870829 -0.49615 1.673706 -0.972045 1.322876 -1.322876 
C 0.972045 -1.673706 0.49615 -1.870829 0 -1.870829 
C -0.49615 -1.870829 -0.972045 -1.673706 -1.322876 -1.322876 
C -1.673706 -0.972045 -1.870829 -0.49615 -1.870829 0 
C -1.870829 0.49615 -1.673706 0.972045 -1.322876 1.322876 
C -0.972045 1.673706 -0.49615 1.870829 0 1.870829 
z
" style="stroke: #0072b2"/>
    </defs>
    <g clip-path="url(#pd13b5b89e4)">
     <use xlink:href="#m1d300e6284" x="522.738744" y="206.348969" style="fill: #0072b2; stroke: #0072b2"/>
     <use xlink:href="#m1d300e6284" x="527.465601" y="297.799285" style="fill: #0072b2; stroke: #0072b2"/>
     <use xlink:href="#m1d300e6284" x="532.192458" y="284.199079" style="fill: #0072b2; stroke: #0072b2"/>
     <use xlink:href="#m1d300e6284" x="536.919315" y="304.620963" style="fill: #0072b2; stroke: #0072b2"/>
     <use xlink:href="#m1d300e6284" x="541.646171" y="225.053043" style="fill: #0072b2; stroke: #0072b2"/>
     <use xlink:href="#m1d300e6284" x="546.373028" y="313.958738" style="fill: #0072b2; stroke: #0072b2"/>
     <use xlink:href="#m1d300e6284" x="560.553599" y="200.253499" style="fill: #0072b2; stroke: #0072b2"/>
     <use xlink:href="#m1d300e6284" x="565.280455" y="267.382871" style="fill: #0072b2; stroke: #0072b2"/>
     <use xlink:href="#m1d300e6284" x="570.007312" y="308.134645" style="fill: #0072b2; stroke: #0072b2"/>
     <use xlink:href="#m1d300e6284" x="574.734169" y="317.186186" style="fill: #0072b2; stroke: #0072b2"/>
     <use xlink:href="#m1d300e6284" x="603.09531" y="268.552358" style="fill: #0072b2; stroke: #0072b2"/>
     <use xlink:href="#m1d300e6284" x="607.822167" y="313.58073" style="fill: #0072b2; stroke: #0072b2"/>
     <use xlink:href="#m1d300e6284" x="612.549024" y="275.34805" style="fill: #0072b2; stroke: #0072b2"/>
     <use xlink:href="#m1d300e6284" x="617.27588" y="315.993707" style="fill: #0072b2; stroke: #0072b2"/>
     <use xlink:href="#m1d300e6284" x="631.456451" y="260.251522" style="fill: #0072b2; stroke: #0072b2"/>
     <use xlink:href="#m1d300e6284" x="636.183308" y="312.374276" style="fill: #0072b2; stroke: #0072b2"/>
     <use xlink:href="#m1d300e6284" x="640.910164" y="261.290845" style="fill: #0072b2; stroke: #0072b2"/>
     <use xlink:href="#m1d300e6284" x="655.090735" y="253.781181" style="fill: #0072b2; stroke: #0072b2"/>
     <use xlink:href="#m1d300e6284" x="659.817592" y="315.388742" style="fill: #0072b2; stroke: #0072b2"/>
     <use xlink:href="#m1d300e6284" x="683.451876" y="308.483819" style="fill: #0072b2; stroke: #0072b2"/>
     <use xlink:href="#m1d300e6284" x="688.178732" y="178.444353" style="fill: #0072b2; stroke: #0072b2"/>
     <use xlink:href="#m1d300e6284" x="702.359303" y="312.745935" style="fill: #0072b2; stroke: #0072b2"/>
     <use xlink:href="#m1d300e6284" x="707.08616" y="294.168867" style="fill: #0072b2; stroke: #0072b2"/>
     <use xlink:href="#m1d300e6284" x="711.813017" y="307.927605" style="fill: #0072b2; stroke: #0072b2"/>
     <use xlink:href="#m1d300e6284" x="716.539873" y="290.550833" style="fill: #0072b2; stroke: #0072b2"/>
     <use xlink:href="#m1d300e6284" x="730.720444" y="223.619527" style="fill: #0072b2; stroke: #0072b2"/>
     <use xlink:href="#m1d300e6284" x="773.262155" y="304.042087" style="fill: #0072b2; stroke: #0072b2"/>
     <use xlink:href="#m1d300e6284" x="777.989012" y="316.435388" style="fill: #0072b2; stroke: #0072b2"/>
     <use xlink:href="#m1d300e6284" x="782.715869" y="266.111945" style="fill: #0072b2; stroke: #0072b2"/>
     <use xlink:href="#m1d300e6284" x="787.442725" y="301.824016" style="fill: #0072b2; stroke: #0072b2"/>
     <use xlink:href="#m1d300e6284" x="792.169582" y="308.270233" style="fill: #0072b2; stroke: #0072b2"/>
     <use xlink:href="#m1d300e6284" x="801.623296" y="56.935131" style="fill: #0072b2; stroke: #0072b2"/>
     <use xlink:href="#m1d300e6284" x="806.350153" y="284.689572" style="fill: #0072b2; stroke: #0072b2"/>
     <use xlink:href="#m1d300e6284" x="811.07701" y="293.650675" style="fill: #0072b2; stroke: #0072b2"/>
     <use xlink:href="#m1d300e6284" x="820.530723" y="306.987511" style="fill: #0072b2; stroke: #0072b2"/>
     <use xlink:href="#m1d300e6284" x="825.25758" y="244.65253" style="fill: #0072b2; stroke: #0072b2"/>
     <use xlink:href="#m1d300e6284" x="839.43815" y="298.268025" style="fill: #0072b2; stroke: #0072b2"/>
     <use xlink:href="#m1d300e6284" x="844.165007" y="187.357787" style="fill: #0072b2; stroke: #0072b2"/>
    </g>
   </g>
   <g id="PathCollection_2">
    <defs>
     <path id="me22cb8ae0f" d="M 0 1.870829 
C 0.49615 1.870829 0.972045 1.673706 1.322876 1.322876 
C 1.673706 0.972045 1.870829 0.49615 1.870829 0 
C 1.870829 -0.49615 1.673706 -0.972045 1.322876 -1.322876 
C 0.972045 -1.673706 0.49615 -1.870829 0 -1.870829 
C -0.49615 -1.870829 -0.972045 -1.673706 -1.322876 -1.322876 
C -1.673706 -0.972045 -1.870829 -0.49615 -1.870829 0 
C -1.870829 0.49615 -1.673706 0.972045 -1.322876 1.322876 
C -0.972045 1.673706 -0.49615 1.870829 0 1.870829 
z
" style="stroke: #d55e00"/>
    </defs>
    <g clip-path="url(#pd13b5b89e4)">
     <use xlink:href="#me22cb8ae0f" x="551.099885" y="266.330877" style="fill: #d55e00; stroke: #d55e00"/>
     <use xlink:href="#me22cb8ae0f" x="555.826742" y="254.599696" style="fill: #d55e00; stroke: #d55e00"/>
     <use xlink:href="#me22cb8ae0f" x="579.461026" y="274.590557" style="fill: #d55e00; stroke: #d55e00"/>
     <use xlink:href="#me22cb8ae0f" x="584.187883" y="287.357851" style="fill: #d55e00; stroke: #d55e00"/>
     <use xlink:href="#me22cb8ae0f" x="588.914739" y="248.94851" style="fill: #d55e00; stroke: #d55e00"/>
     <use xlink:href="#me22cb8ae0f" x="593.641596" y="270.618402" style="fill: #d55e00; stroke: #d55e00"/>
     <use xlink:href="#me22cb8ae0f" x="598.368453" y="312.584822" style="fill: #d55e00; stroke: #d55e00"/>
     <use xlink:href="#me22cb8ae0f" x="622.002737" y="308.183255" style="fill: #d55e00; stroke: #d55e00"/>
     <use xlink:href="#me22cb8ae0f" x="626.729594" y="259.058115" style="fill: #d55e00; stroke: #d55e00"/>
     <use xlink:href="#me22cb8ae0f" x="645.637021" y="212.429319" style="fill: #d55e00; stroke: #d55e00"/>
     <use xlink:href="#me22cb8ae0f" x="650.363878" y="295.976005" style="fill: #d55e00; stroke: #d55e00"/>
     <use xlink:href="#me22cb8ae0f" x="664.544448" y="137.362713" style="fill: #d55e00; stroke: #d55e00"/>
     <use xlink:href="#me22cb8ae0f" x="669.271305" y="257.1609" style="fill: #d55e00; stroke: #d55e00"/>
     <use xlink:href="#me22cb8ae0f" x="673.998162" y="179.338897" style="fill: #d55e00; stroke: #d55e00"/>
     <use xlink:href="#me22cb8ae0f" x="678.725019" y="286.321655" style="fill: #d55e00; stroke: #d55e00"/>
     <use xlink:href="#me22cb8ae0f" x="692.905589" y="313.752403" style="fill: #d55e00; stroke: #d55e00"/>
     <use xlink:href="#me22cb8ae0f" x="697.632446" y="285.577638" style="fill: #d55e00; stroke: #d55e00"/>
     <use xlink:href="#me22cb8ae0f" x="721.26673" y="291.927831" style="fill: #d55e00; stroke: #d55e00"/>
     <use xlink:href="#me22cb8ae0f" x="725.993587" y="236.878538" style="fill: #d55e00; stroke: #d55e00"/>
     <use xlink:href="#me22cb8ae0f" x="735.447301" y="267.186626" style="fill: #d55e00; stroke: #d55e00"/>
     <use xlink:href="#me22cb8ae0f" x="740.174157" y="291.496358" style="fill: #d55e00; stroke: #d55e00"/>
     <use xlink:href="#me22cb8ae0f" x="744.901014" y="162.770537" style="fill: #d55e00; stroke: #d55e00"/>
     <use xlink:href="#me22cb8ae0f" x="749.627871" y="259.006683" style="fill: #d55e00; stroke: #d55e00"/>
     <use xlink:href="#me22cb8ae0f" x="754.354728" y="301.8398" style="fill: #d55e00; stroke: #d55e00"/>
     <use xlink:href="#me22cb8ae0f" x="759.081585" y="300.919707" style="fill: #d55e00; stroke: #d55e00"/>
     <use xlink:href="#me22cb8ae0f" x="763.808441" y="298.335795" style="fill: #d55e00; stroke: #d55e00"/>
     <use xlink:href="#me22cb8ae0f" x="768.535298" y="281.331581" style="fill: #d55e00; stroke: #d55e00"/>
     <use xlink:href="#me22cb8ae0f" x="796.896439" y="308.594692" style="fill: #d55e00; stroke: #d55e00"/>
     <use xlink:href="#me22cb8ae0f" x="815.803866" y="271.307325" style="fill: #d55e00; stroke: #d55e00"/>
     <use xlink:href="#me22cb8ae0f" x="829.984437" y="310.104264" style="fill: #d55e00; stroke: #d55e00"/>
     <use xlink:href="#me22cb8ae0f" x="834.711294" y="221.35145" style="fill: #d55e00; stroke: #d55e00"/>
     <use xlink:href="#me22cb8ae0f" x="848.891864" y="309.681927" style="fill: #d55e00; stroke: #d55e00"/>
    </g>
   </g>
   <g id="matplotlib.axis_3">
    <g id="xtick_9">
     <g id="line2d_72">
      <path d="M 518.011887 330.198739 
L 518.011887 43.922578 
" clip-path="url(#pd13b5b89e4)" style="fill: none; stroke: #b0b0b0; stroke-opacity: 0.2; stroke-width: 0.8; stroke-linecap: square"/>
     </g>
     <g id="line2d_73">
      <g>
       <use xlink:href="#m8e044b5f90" x="518.011887" y="330.198739" style="stroke: #000000; stroke-width: 0.8"/>
      </g>
     </g>
     <g id="text_21">
      <!-- 0 -->
      <g transform="translate(514.830637 344.796395) scale(0.1 -0.1)">
       <use xlink:href="#DejaVuSans-13"/>
      </g>
     </g>
    </g>
    <g id="xtick_10">
     <g id="line2d_74">
      <path d="M 565.280455 330.198739 
L 565.280455 43.922578 
" clip-path="url(#pd13b5b89e4)" style="fill: none; stroke: #b0b0b0; stroke-opacity: 0.2; stroke-width: 0.8; stroke-linecap: square"/>
     </g>
     <g id="line2d_75">
      <g>
       <use xlink:href="#m8e044b5f90" x="565.280455" y="330.198739" style="stroke: #000000; stroke-width: 0.8"/>
      </g>
     </g>
     <g id="text_22">
      <!-- 10 -->
      <g transform="translate(558.917955 344.796395) scale(0.1 -0.1)">
       <use xlink:href="#DejaVuSans-14"/>
       <use xlink:href="#DejaVuSans-13" transform="translate(63.625 0)"/>
      </g>
     </g>
    </g>
    <g id="xtick_11">
     <g id="line2d_76">
      <path d="M 612.549024 330.198739 
L 612.549024 43.922578 
" clip-path="url(#pd13b5b89e4)" style="fill: none; stroke: #b0b0b0; stroke-opacity: 0.2; stroke-width: 0.8; stroke-linecap: square"/>
     </g>
     <g id="line2d_77">
      <g>
       <use xlink:href="#m8e044b5f90" x="612.549024" y="330.198739" style="stroke: #000000; stroke-width: 0.8"/>
      </g>
     </g>
     <g id="text_23">
      <!-- 20 -->
      <g transform="translate(606.186524 344.796395) scale(0.1 -0.1)">
       <use xlink:href="#DejaVuSans-15"/>
       <use xlink:href="#DejaVuSans-13" transform="translate(63.625 0)"/>
      </g>
     </g>
    </g>
    <g id="xtick_12">
     <g id="line2d_78">
      <path d="M 659.817592 330.198739 
L 659.817592 43.922578 
" clip-path="url(#pd13b5b89e4)" style="fill: none; stroke: #b0b0b0; stroke-opacity: 0.2; stroke-width: 0.8; stroke-linecap: square"/>
     </g>
     <g id="line2d_79">
      <g>
       <use xlink:href="#m8e044b5f90" x="659.817592" y="330.198739" style="stroke: #000000; stroke-width: 0.8"/>
      </g>
     </g>
     <g id="text_24">
      <!-- 30 -->
      <g transform="translate(653.455092 344.796395) scale(0.1 -0.1)">
       <use xlink:href="#DejaVuSans-16"/>
       <use xlink:href="#DejaVuSans-13" transform="translate(63.625 0)"/>
      </g>
     </g>
    </g>
    <g id="xtick_13">
     <g id="line2d_80">
      <path d="M 707.08616 330.198739 
L 707.08616 43.922578 
" clip-path="url(#pd13b5b89e4)" style="fill: none; stroke: #b0b0b0; stroke-opacity: 0.2; stroke-width: 0.8; stroke-linecap: square"/>
     </g>
     <g id="line2d_81">
      <g>
       <use xlink:href="#m8e044b5f90" x="707.08616" y="330.198739" style="stroke: #000000; stroke-width: 0.8"/>
      </g>
     </g>
     <g id="text_25">
      <!-- 40 -->
      <g transform="translate(700.72366 344.796395) scale(0.1 -0.1)">
       <use xlink:href="#DejaVuSans-17"/>
       <use xlink:href="#DejaVuSans-13" transform="translate(63.625 0)"/>
      </g>
     </g>
    </g>
    <g id="xtick_14">
     <g id="line2d_82">
      <path d="M 754.354728 330.198739 
L 754.354728 43.922578 
" clip-path="url(#pd13b5b89e4)" style="fill: none; stroke: #b0b0b0; stroke-opacity: 0.2; stroke-width: 0.8; stroke-linecap: square"/>
     </g>
     <g id="line2d_83">
      <g>
       <use xlink:href="#m8e044b5f90" x="754.354728" y="330.198739" style="stroke: #000000; stroke-width: 0.8"/>
      </g>
     </g>
     <g id="text_26">
      <!-- 50 -->
      <g transform="translate(747.992228 344.796395) scale(0.1 -0.1)">
       <use xlink:href="#DejaVuSans-18"/>
       <use xlink:href="#DejaVuSans-13" transform="translate(63.625 0)"/>
      </g>
     </g>
    </g>
    <g id="xtick_15">
     <g id="line2d_84">
      <path d="M 801.623296 330.198739 
L 801.623296 43.922578 
" clip-path="url(#pd13b5b89e4)" style="fill: none; stroke: #b0b0b0; stroke-opacity: 0.2; stroke-width: 0.8; stroke-linecap: square"/>
     </g>
     <g id="line2d_85">
      <g>
       <use xlink:href="#m8e044b5f90" x="801.623296" y="330.198739" style="stroke: #000000; stroke-width: 0.8"/>
      </g>
     </g>
     <g id="text_27">
      <!-- 60 -->
      <g transform="translate(795.260796 344.796395) scale(0.1 -0.1)">
       <use xlink:href="#DejaVuSans-19"/>
       <use xlink:href="#DejaVuSans-13" transform="translate(63.625 0)"/>
      </g>
     </g>
    </g>
    <g id="xtick_16">
     <g id="line2d_86">
      <path d="M 848.891864 330.198739 
L 848.891864 43.922578 
" clip-path="url(#pd13b5b89e4)" style="fill: none; stroke: #b0b0b0; stroke-opacity: 0.2; stroke-width: 0.8; stroke-linecap: square"/>
     </g>
     <g id="line2d_87">
      <g>
       <use xlink:href="#m8e044b5f90" x="848.891864" y="330.198739" style="stroke: #000000; stroke-width: 0.8"/>
      </g>
     </g>
     <g id="text_28">
      <!-- 70 -->
      <g transform="translate(842.529364 344.796395) scale(0.1 -0.1)">
       <defs>
        <path id="DejaVuSans-1a" d="M 525 4666 
L 3525 4666 
L 3525 4397 
L 1831 0 
L 1172 0 
L 2766 4134 
L 525 4134 
L 525 4666 
z
" transform="scale(0.015625)"/>
       </defs>
       <use xlink:href="#DejaVuSans-1a"/>
       <use xlink:href="#DejaVuSans-13" transform="translate(63.625 0)"/>
      </g>
     </g>
    </g>
    <g id="text_29">
     <!-- Reference work (saved identity order) -->
     <g transform="translate(590.988742 358.797176) scale(0.1 -0.1)">
      <defs>
       <path id="DejaVuSans-59" d="M 191 3500 
L 800 3500 
L 1894 563 
L 2988 3500 
L 3597 3500 
L 2284 0 
L 1503 0 
L 191 3500 
z
" transform="scale(0.015625)"/>
      </defs>
      <use xlink:href="#DejaVuSans-35"/>
      <use xlink:href="#DejaVuSans-48" transform="translate(65 0)"/>
      <use xlink:href="#DejaVuSans-49" transform="translate(126.53125 0)"/>
      <use xlink:href="#DejaVuSans-48" transform="translate(161.734375 0)"/>
      <use xlink:href="#DejaVuSans-55" transform="translate(223.265625 0)"/>
      <use xlink:href="#DejaVuSans-48" transform="translate(262.171875 0)"/>
      <use xlink:href="#DejaVuSans-51" transform="translate(323.703125 0)"/>
      <use xlink:href="#DejaVuSans-46" transform="translate(387.078125 0)"/>
      <use xlink:href="#DejaVuSans-48" transform="translate(442.0625 0)"/>
      <use xlink:href="#DejaVuSans-3" transform="translate(503.59375 0)"/>
      <use xlink:href="#DejaVuSans-5a" transform="translate(535.375 0)"/>
      <use xlink:href="#DejaVuSans-52" transform="translate(617.15625 0)"/>
      <use xlink:href="#DejaVuSans-55" transform="translate(678.34375 0)"/>
      <use xlink:href="#DejaVuSans-4e" transform="translate(719.453125 0)"/>
      <use xlink:href="#DejaVuSans-3" transform="translate(777.359375 0)"/>
      <use xlink:href="#DejaVuSans-b" transform="translate(809.140625 0)"/>
      <use xlink:href="#DejaVuSans-56" transform="translate(848.15625 0)"/>
      <use xlink:href="#DejaVuSans-44" transform="translate(900.25 0)"/>
      <use xlink:href="#DejaVuSans-59" transform="translate(961.53125 0)"/>
      <use xlink:href="#DejaVuSans-48" transform="translate(1020.71875 0)"/>
      <use xlink:href="#DejaVuSans-47" transform="translate(1082.25 0)"/>
      <use xlink:href="#DejaVuSans-3" transform="translate(1145.734375 0)"/>
      <use xlink:href="#DejaVuSans-4c" transform="translate(1177.515625 0)"/>
      <use xlink:href="#DejaVuSans-47" transform="translate(1205.296875 0)"/>
      <use xlink:href="#DejaVuSans-48" transform="translate(1268.78125 0)"/>
      <use xlink:href="#DejaVuSans-51" transform="translate(1330.3125 0)"/>
      <use xlink:href="#DejaVuSans-57" transform="translate(1393.6875 0)"/>
      <use xlink:href="#DejaVuSans-4c" transform="translate(1432.890625 0)"/>
      <use xlink:href="#DejaVuSans-57" transform="translate(1460.671875 0)"/>
      <use xlink:href="#DejaVuSans-5c" transform="translate(1499.875 0)"/>
      <use xlink:href="#DejaVuSans-3" transform="translate(1559.0625 0)"/>
      <use xlink:href="#DejaVuSans-52" transform="translate(1590.84375 0)"/>
      <use xlink:href="#DejaVuSans-55" transform="translate(1652.03125 0)"/>
      <use xlink:href="#DejaVuSans-47" transform="translate(1691.390625 0)"/>
      <use xlink:href="#DejaVuSans-48" transform="translate(1754.875 0)"/>
      <use xlink:href="#DejaVuSans-55" transform="translate(1816.40625 0)"/>
      <use xlink:href="#DejaVuSans-c" transform="translate(1857.515625 0)"/>
     </g>
    </g>
   </g>
   <g id="matplotlib.axis_4">
    <g id="ytick_7">
     <g id="line2d_88">
      <path d="M 506.431088 323.461971 
L 865.19952 323.461971 
" clip-path="url(#pd13b5b89e4)" style="fill: none; stroke: #b0b0b0; stroke-opacity: 0.2; stroke-width: 0.8; stroke-linecap: square"/>
     </g>
     <g id="line2d_89">
      <g>
       <use xlink:href="#m7baa21dd1d" x="506.431088" y="323.461971" style="stroke: #000000; stroke-width: 0.8"/>
      </g>
     </g>
     <g id="text_30">
      <!-- 0.00 -->
      <g transform="translate(477.165463 327.260799) scale(0.1 -0.1)">
       <defs>
        <path id="DejaVuSans-11" d="M 684 794 
L 1344 794 
L 1344 0 
L 684 0 
L 684 794 
z
" transform="scale(0.015625)"/>
       </defs>
       <use xlink:href="#DejaVuSans-13"/>
       <use xlink:href="#DejaVuSans-11" transform="translate(63.625 0)"/>
       <use xlink:href="#DejaVuSans-13" transform="translate(95.40625 0)"/>
       <use xlink:href="#DejaVuSans-13" transform="translate(159.03125 0)"/>
      </g>
     </g>
    </g>
    <g id="ytick_8">
     <g id="line2d_90">
      <path d="M 506.431088 275.217234 
L 865.19952 275.217234 
" clip-path="url(#pd13b5b89e4)" style="fill: none; stroke: #b0b0b0; stroke-opacity: 0.2; stroke-width: 0.8; stroke-linecap: square"/>
     </g>
     <g id="line2d_91">
      <g>
       <use xlink:href="#m7baa21dd1d" x="506.431088" y="275.217234" style="stroke: #000000; stroke-width: 0.8"/>
      </g>
     </g>
     <g id="text_31">
      <!-- 0.02 -->
      <g transform="translate(477.165463 279.016062) scale(0.1 -0.1)">
       <use xlink:href="#DejaVuSans-13"/>
       <use xlink:href="#DejaVuSans-11" transform="translate(63.625 0)"/>
       <use xlink:href="#DejaVuSans-13" transform="translate(95.40625 0)"/>
       <use xlink:href="#DejaVuSans-15" transform="translate(159.03125 0)"/>
      </g>
     </g>
    </g>
    <g id="ytick_9">
     <g id="line2d_92">
      <path d="M 506.431088 226.972497 
L 865.19952 226.972497 
" clip-path="url(#pd13b5b89e4)" style="fill: none; stroke: #b0b0b0; stroke-opacity: 0.2; stroke-width: 0.8; stroke-linecap: square"/>
     </g>
     <g id="line2d_93">
      <g>
       <use xlink:href="#m7baa21dd1d" x="506.431088" y="226.972497" style="stroke: #000000; stroke-width: 0.8"/>
      </g>
     </g>
     <g id="text_32">
      <!-- 0.04 -->
      <g transform="translate(477.165463 230.771325) scale(0.1 -0.1)">
       <use xlink:href="#DejaVuSans-13"/>
       <use xlink:href="#DejaVuSans-11" transform="translate(63.625 0)"/>
       <use xlink:href="#DejaVuSans-13" transform="translate(95.40625 0)"/>
       <use xlink:href="#DejaVuSans-17" transform="translate(159.03125 0)"/>
      </g>
     </g>
    </g>
    <g id="ytick_10">
     <g id="line2d_94">
      <path d="M 506.431088 178.72776 
L 865.19952 178.72776 
" clip-path="url(#pd13b5b89e4)" style="fill: none; stroke: #b0b0b0; stroke-opacity: 0.2; stroke-width: 0.8; stroke-linecap: square"/>
     </g>
     <g id="line2d_95">
      <g>
       <use xlink:href="#m7baa21dd1d" x="506.431088" y="178.72776" style="stroke: #000000; stroke-width: 0.8"/>
      </g>
     </g>
     <g id="text_33">
      <!-- 0.06 -->
      <g transform="translate(477.165463 182.526588) scale(0.1 -0.1)">
       <use xlink:href="#DejaVuSans-13"/>
       <use xlink:href="#DejaVuSans-11" transform="translate(63.625 0)"/>
       <use xlink:href="#DejaVuSans-13" transform="translate(95.40625 0)"/>
       <use xlink:href="#DejaVuSans-19" transform="translate(159.03125 0)"/>
      </g>
     </g>
    </g>
    <g id="ytick_11">
     <g id="line2d_96">
      <path d="M 506.431088 130.483023 
L 865.19952 130.483023 
" clip-path="url(#pd13b5b89e4)" style="fill: none; stroke: #b0b0b0; stroke-opacity: 0.2; stroke-width: 0.8; stroke-linecap: square"/>
     </g>
     <g id="line2d_97">
      <g>
       <use xlink:href="#m7baa21dd1d" x="506.431088" y="130.483023" style="stroke: #000000; stroke-width: 0.8"/>
      </g>
     </g>
     <g id="text_34">
      <!-- 0.08 -->
      <g transform="translate(477.165463 134.281851) scale(0.1 -0.1)">
       <defs>
        <path id="DejaVuSans-1b" d="M 2034 2216 
Q 1584 2216 1326 1975 
Q 1069 1734 1069 1313 
Q 1069 891 1326 650 
Q 1584 409 2034 409 
Q 2484 409 2743 651 
Q 3003 894 3003 1313 
Q 3003 1734 2745 1975 
Q 2488 2216 2034 2216 
z
M 1403 2484 
Q 997 2584 770 2862 
Q 544 3141 544 3541 
Q 544 4100 942 4425 
Q 1341 4750 2034 4750 
Q 2731 4750 3128 4425 
Q 3525 4100 3525 3541 
Q 3525 3141 3298 2862 
Q 3072 2584 2669 2484 
Q 3125 2378 3379 2068 
Q 3634 1759 3634 1313 
Q 3634 634 3220 271 
Q 2806 -91 2034 -91 
Q 1263 -91 848 271 
Q 434 634 434 1313 
Q 434 1759 690 2068 
Q 947 2378 1403 2484 
z
M 1172 3481 
Q 1172 3119 1398 2916 
Q 1625 2713 2034 2713 
Q 2441 2713 2670 2916 
Q 2900 3119 2900 3481 
Q 2900 3844 2670 4047 
Q 2441 4250 2034 4250 
Q 1625 4250 1398 4047 
Q 1172 3844 1172 3481 
z
" transform="scale(0.015625)"/>
       </defs>
       <use xlink:href="#DejaVuSans-13"/>
       <use xlink:href="#DejaVuSans-11" transform="translate(63.625 0)"/>
       <use xlink:href="#DejaVuSans-13" transform="translate(95.40625 0)"/>
       <use xlink:href="#DejaVuSans-1b" transform="translate(159.03125 0)"/>
      </g>
     </g>
    </g>
    <g id="ytick_12">
     <g id="line2d_98">
      <path d="M 506.431088 82.238286 
L 865.19952 82.238286 
" clip-path="url(#pd13b5b89e4)" style="fill: none; stroke: #b0b0b0; stroke-opacity: 0.2; stroke-width: 0.8; stroke-linecap: square"/>
     </g>
     <g id="line2d_99">
      <g>
       <use xlink:href="#m7baa21dd1d" x="506.431088" y="82.238286" style="stroke: #000000; stroke-width: 0.8"/>
      </g>
     </g>
     <g id="text_35">
      <!-- 0.10 -->
      <g transform="translate(477.165463 86.037114) scale(0.1 -0.1)">
       <use xlink:href="#DejaVuSans-13"/>
       <use xlink:href="#DejaVuSans-11" transform="translate(63.625 0)"/>
       <use xlink:href="#DejaVuSans-14" transform="translate(95.40625 0)"/>
       <use xlink:href="#DejaVuSans-13" transform="translate(159.03125 0)"/>
      </g>
     </g>
    </g>
    <g id="text_36">
     <!-- Range across processing / primary development IQR -->
     <g transform="translate(470.763119 318.538783) rotate(-90) scale(0.1 -0.1)">
      <defs>
       <path id="DejaVuSans-53" d="M 1159 525 
L 1159 -1331 
L 581 -1331 
L 581 3500 
L 1159 3500 
L 1159 2969 
Q 1341 3281 1617 3432 
Q 1894 3584 2278 3584 
Q 2916 3584 3314 3078 
Q 3713 2572 3713 1747 
Q 3713 922 3314 415 
Q 2916 -91 2278 -91 
Q 1894 -91 1617 61 
Q 1341 213 1159 525 
z
M 3116 1747 
Q 3116 2381 2855 2742 
Q 2594 3103 2138 3103 
Q 1681 3103 1420 2742 
Q 1159 2381 1159 1747 
Q 1159 1113 1420 752 
Q 1681 391 2138 391 
Q 2594 391 2855 752 
Q 3116 1113 3116 1747 
z
" transform="scale(0.015625)"/>
      </defs>
      <use xlink:href="#DejaVuSans-35"/>
      <use xlink:href="#DejaVuSans-44" transform="translate(67.28125 0)"/>
      <use xlink:href="#DejaVuSans-51" transform="translate(128.5625 0)"/>
      <use xlink:href="#DejaVuSans-4a" transform="translate(191.9375 0)"/>
      <use xlink:href="#DejaVuSans-48" transform="translate(255.421875 0)"/>
      <use xlink:href="#DejaVuSans-3" transform="translate(316.953125 0)"/>
      <use xlink:href="#DejaVuSans-44" transform="translate(348.734375 0)"/>
      <use xlink:href="#DejaVuSans-46" transform="translate(410.015625 0)"/>
      <use xlink:href="#DejaVuSans-55" transform="translate(465 0)"/>
      <use xlink:href="#DejaVuSans-52" transform="translate(503.90625 0)"/>
      <use xlink:href="#DejaVuSans-56" transform="translate(565.09375 0)"/>
      <use xlink:href="#DejaVuSans-56" transform="translate(617.1875 0)"/>
      <use xlink:href="#DejaVuSans-3" transform="translate(669.28125 0)"/>
      <use xlink:href="#DejaVuSans-53" transform="translate(701.0625 0)"/>
      <use xlink:href="#DejaVuSans-55" transform="translate(764.546875 0)"/>
      <use xlink:href="#DejaVuSans-52" transform="translate(803.453125 0)"/>
      <use xlink:href="#DejaVuSans-46" transform="translate(864.640625 0)"/>
      <use xlink:href="#DejaVuSans-48" transform="translate(919.625 0)"/>
      <use xlink:href="#DejaVuSans-56" transform="translate(981.15625 0)"/>
      <use xlink:href="#DejaVuSans-56" transform="translate(1033.25 0)"/>
      <use xlink:href="#DejaVuSans-4c" transform="translate(1085.34375 0)"/>
      <use xlink:href="#DejaVuSans-51" transform="translate(1113.125 0)"/>
      <use xlink:href="#DejaVuSans-4a" transform="translate(1176.5 0)"/>
      <use xlink:href="#DejaVuSans-3" transform="translate(1239.984375 0)"/>
      <use xlink:href="#DejaVuSans-12" transform="translate(1271.765625 0)"/>
      <use xlink:href="#DejaVuSans-3" transform="translate(1305.453125 0)"/>
      <use xlink:href="#DejaVuSans-53" transform="translate(1337.234375 0)"/>
      <use xlink:href="#DejaVuSans-55" transform="translate(1400.71875 0)"/>
      <use xlink:href="#DejaVuSans-4c" transform="translate(1441.828125 0)"/>
      <use xlink:href="#DejaVuSans-50" transform="translate(1469.609375 0)"/>
      <use xlink:href="#DejaVuSans-44" transform="translate(1567.015625 0)"/>
      <use xlink:href="#DejaVuSans-55" transform="translate(1628.296875 0)"/>
      <use xlink:href="#DejaVuSans-5c" transform="translate(1669.40625 0)"/>
      <use xlink:href="#DejaVuSans-3" transform="translate(1728.59375 0)"/>
      <use xlink:href="#DejaVuSans-47" transform="translate(1760.375 0)"/>
      <use xlink:href="#DejaVuSans-48" transform="translate(1823.859375 0)"/>
      <use xlink:href="#DejaVuSans-59" transform="translate(1885.390625 0)"/>
      <use xlink:href="#DejaVuSans-48" transform="translate(1944.578125 0)"/>
      <use xlink:href="#DejaVuSans-4f" transform="translate(2006.109375 0)"/>
      <use xlink:href="#DejaVuSans-52" transform="translate(2033.890625 0)"/>
      <use xlink:href="#DejaVuSans-53" transform="translate(2095.078125 0)"/>
      <use xlink:href="#DejaVuSans-50" transform="translate(2158.5625 0)"/>
      <use xlink:href="#DejaVuSans-48" transform="translate(2255.96875 0)"/>
      <use xlink:href="#DejaVuSans-51" transform="translate(2317.5 0)"/>
      <use xlink:href="#DejaVuSans-57" transform="translate(2380.875 0)"/>
      <use xlink:href="#DejaVuSans-3" transform="translate(2420.078125 0)"/>
      <use xlink:href="#DejaVuSans-2c" transform="translate(2451.859375 0)"/>
      <use xlink:href="#DejaVuSans-34" transform="translate(2481.359375 0)"/>
      <use xlink:href="#DejaVuSans-35" transform="translate(2560.078125 0)"/>
     </g>
    </g>
   </g>
   <g id="patch_9">
    <path d="M 506.431088 330.198739 
L 506.431088 43.922578 
" style="fill: none; stroke: #000000; stroke-width: 0.8; stroke-linejoin: miter; stroke-linecap: square"/>
   </g>
   <g id="patch_10">
    <path d="M 865.19952 330.198739 
L 865.19952 43.922578 
" style="fill: none; stroke: #000000; stroke-width: 0.8; stroke-linejoin: miter; stroke-linecap: square"/>
   </g>
   <g id="patch_11">
    <path d="M 506.431088 330.198739 
L 865.19952 330.198739 
" style="fill: none; stroke: #000000; stroke-width: 0.8; stroke-linejoin: miter; stroke-linecap: square"/>
   </g>
   <g id="patch_12">
    <path d="M 506.431088 43.922578 
L 865.19952 43.922578 
" style="fill: none; stroke: #000000; stroke-width: 0.8; stroke-linejoin: miter; stroke-linecap: square"/>
   </g>
   <g id="text_37">
    <!-- Same-work processing sensitivity -->
    <g transform="translate(585.407179 17.519297) scale(0.12 -0.12)">
     <defs>
      <path id="DejaVuSans-36" d="M 3425 4513 
L 3425 3897 
Q 3066 4069 2747 4153 
Q 2428 4238 2131 4238 
Q 1616 4238 1336 4038 
Q 1056 3838 1056 3469 
Q 1056 3159 1242 3001 
Q 1428 2844 1947 2747 
L 2328 2669 
Q 3034 2534 3370 2195 
Q 3706 1856 3706 1288 
Q 3706 609 3251 259 
Q 2797 -91 1919 -91 
Q 1588 -91 1214 -16 
Q 841 59 441 206 
L 441 856 
Q 825 641 1194 531 
Q 1563 422 1919 422 
Q 2459 422 2753 634 
Q 3047 847 3047 1241 
Q 3047 1584 2836 1778 
Q 2625 1972 2144 2069 
L 1759 2144 
Q 1053 2284 737 2584 
Q 422 2884 422 3419 
Q 422 4038 858 4394 
Q 1294 4750 2059 4750 
Q 2388 4750 2728 4690 
Q 3069 4631 3425 4513 
z
" transform="scale(0.015625)"/>
      <path id="DejaVuSans-10" d="M 313 2009 
L 1997 2009 
L 1997 1497 
L 313 1497 
L 313 2009 
z
" transform="scale(0.015625)"/>
     </defs>
     <use xlink:href="#DejaVuSans-36"/>
     <use xlink:href="#DejaVuSans-44" transform="translate(63.484375 0)"/>
     <use xlink:href="#DejaVuSans-50" transform="translate(124.765625 0)"/>
     <use xlink:href="#DejaVuSans-48" transform="translate(222.171875 0)"/>
     <use xlink:href="#DejaVuSans-10" transform="translate(283.703125 0)"/>
     <use xlink:href="#DejaVuSans-5a" transform="translate(319.78125 0)"/>
     <use xlink:href="#DejaVuSans-52" transform="translate(401.5625 0)"/>
     <use xlink:href="#DejaVuSans-55" transform="translate(462.75 0)"/>
     <use xlink:href="#DejaVuSans-4e" transform="translate(503.859375 0)"/>
     <use xlink:href="#DejaVuSans-3" transform="translate(561.765625 0)"/>
     <use xlink:href="#DejaVuSans-53" transform="translate(593.546875 0)"/>
     <use xlink:href="#DejaVuSans-55" transform="translate(657.03125 0)"/>
     <use xlink:href="#DejaVuSans-52" transform="translate(695.9375 0)"/>
     <use xlink:href="#DejaVuSans-46" transform="translate(757.125 0)"/>
     <use xlink:href="#DejaVuSans-48" transform="translate(812.109375 0)"/>
     <use xlink:href="#DejaVuSans-56" transform="translate(873.640625 0)"/>
     <use xlink:href="#DejaVuSans-56" transform="translate(925.734375 0)"/>
     <use xlink:href="#DejaVuSans-4c" transform="translate(977.828125 0)"/>
     <use xlink:href="#DejaVuSans-51" transform="translate(1005.609375 0)"/>
     <use xlink:href="#DejaVuSans-4a" transform="translate(1068.984375 0)"/>
     <use xlink:href="#DejaVuSans-3" transform="translate(1132.46875 0)"/>
     <use xlink:href="#DejaVuSans-56" transform="translate(1164.25 0)"/>
     <use xlink:href="#DejaVuSans-48" transform="translate(1216.34375 0)"/>
     <use xlink:href="#DejaVuSans-51" transform="translate(1277.875 0)"/>
     <use xlink:href="#DejaVuSans-56" transform="translate(1341.25 0)"/>
     <use xlink:href="#DejaVuSans-4c" transform="translate(1393.34375 0)"/>
     <use xlink:href="#DejaVuSans-57" transform="translate(1421.125 0)"/>
     <use xlink:href="#DejaVuSans-4c" transform="translate(1460.328125 0)"/>
     <use xlink:href="#DejaVuSans-59" transform="translate(1488.109375 0)"/>
     <use xlink:href="#DejaVuSans-4c" transform="translate(1547.296875 0)"/>
     <use xlink:href="#DejaVuSans-57" transform="translate(1575.078125 0)"/>
     <use xlink:href="#DejaVuSans-5c" transform="translate(1614.28125 0)"/>
    </g>
    <!-- These are not independent captures -->
    <g transform="translate(576.661242 31.922578) scale(0.12 -0.12)">
     <defs>
      <path id="DejaVuSans-37" d="M -19 4666 
L 3928 4666 
L 3928 4134 
L 2272 4134 
L 2272 0 
L 1638 0 
L 1638 4134 
L -19 4134 
L -19 4666 
z
" transform="scale(0.015625)"/>
     </defs>
     <use xlink:href="#DejaVuSans-37"/>
     <use xlink:href="#DejaVuSans-4b" transform="translate(61.078125 0)"/>
     <use xlink:href="#DejaVuSans-48" transform="translate(124.453125 0)"/>
     <use xlink:href="#DejaVuSans-56" transform="translate(185.984375 0)"/>
     <use xlink:href="#DejaVuSans-48" transform="translate(238.078125 0)"/>
     <use xlink:href="#DejaVuSans-3" transform="translate(299.609375 0)"/>
     <use xlink:href="#DejaVuSans-44" transform="translate(331.390625 0)"/>
     <use xlink:href="#DejaVuSans-55" transform="translate(392.671875 0)"/>
     <use xlink:href="#DejaVuSans-48" transform="translate(431.578125 0)"/>
     <use xlink:href="#DejaVuSans-3" transform="translate(493.109375 0)"/>
     <use xlink:href="#DejaVuSans-51" transform="translate(524.890625 0)"/>
     <use xlink:href="#DejaVuSans-52" transform="translate(588.265625 0)"/>
     <use xlink:href="#DejaVuSans-57" transform="translate(649.453125 0)"/>
     <use xlink:href="#DejaVuSans-3" transform="translate(688.65625 0)"/>
     <use xlink:href="#DejaVuSans-4c" transform="translate(720.4375 0)"/>
     <use xlink:href="#DejaVuSans-51" transform="translate(748.21875 0)"/>
     <use xlink:href="#DejaVuSans-47" transform="translate(811.59375 0)"/>
     <use xlink:href="#DejaVuSans-48" transform="translate(875.078125 0)"/>
     <use xlink:href="#DejaVuSans-53" transform="translate(936.609375 0)"/>
     <use xlink:href="#DejaVuSans-48" transform="translate(1000.09375 0)"/>
     <use xlink:href="#DejaVuSans-51" transform="translate(1061.625 0)"/>
     <use xlink:href="#DejaVuSans-47" transform="translate(1125 0)"/>
     <use xlink:href="#DejaVuSans-48" transform="translate(1188.484375 0)"/>
     <use xlink:href="#DejaVuSans-51" transform="translate(1250.015625 0)"/>
     <use xlink:href="#DejaVuSans-57" transform="translate(1313.390625 0)"/>
     <use xlink:href="#DejaVuSans-3" transform="translate(1352.59375 0)"/>
     <use xlink:href="#DejaVuSans-46" transform="translate(1384.375 0)"/>
     <use xlink:href="#DejaVuSans-44" transform="translate(1439.359375 0)"/>
     <use xlink:href="#DejaVuSans-53" transform="translate(1500.640625 0)"/>
     <use xlink:href="#DejaVuSans-57" transform="translate(1564.125 0)"/>
     <use xlink:href="#DejaVuSans-58" transform="translate(1603.328125 0)"/>
     <use xlink:href="#DejaVuSans-55" transform="translate(1666.703125 0)"/>
     <use xlink:href="#DejaVuSans-48" transform="translate(1705.609375 0)"/>
     <use xlink:href="#DejaVuSans-56" transform="translate(1767.140625 0)"/>
    </g>
   </g>
   <g id="legend_2">
    <g id="patch_13">
     <path d="M 512.031088 74.643828 
L 572.303588 74.643828 
Q 573.903588 74.643828 573.903588 73.043828 
L 573.903588 49.522578 
Q 573.903588 47.922578 572.303588 47.922578 
L 512.031088 47.922578 
Q 510.431088 47.922578 510.431088 49.522578 
L 510.431088 73.043828 
Q 510.431088 74.643828 512.031088 74.643828 
z
" style="fill: #ffffff; opacity: 0.8; stroke: #cccccc; stroke-linejoin: miter"/>
    </g>
    <g id="PathCollection_3">
     <g>
      <use xlink:href="#m1d300e6284" x="521.631088" y="55.101328" style="fill: #0072b2; stroke: #0072b2"/>
     </g>
    </g>
    <g id="text_38">
     <!-- Monet -->
     <g transform="translate(536.031088 57.201328) scale(0.08 -0.08)">
      <use xlink:href="#DejaVuSans-30"/>
      <use xlink:href="#DejaVuSans-52" transform="translate(86.28125 0)"/>
      <use xlink:href="#DejaVuSans-51" transform="translate(147.46875 0)"/>
      <use xlink:href="#DejaVuSans-48" transform="translate(210.84375 0)"/>
      <use xlink:href="#DejaVuSans-57" transform="translate(272.375 0)"/>
     </g>
    </g>
    <g id="PathCollection_4">
     <g>
      <use xlink:href="#me22cb8ae0f" x="521.631088" y="67.421953" style="fill: #d55e00; stroke: #d55e00"/>
     </g>
    </g>
    <g id="text_39">
     <!-- Cézanne -->
     <g transform="translate(536.031088 69.521953) scale(0.08 -0.08)">
      <use xlink:href="#DejaVuSans-26"/>
      <use xlink:href="#DejaVuSans-ab" transform="translate(69.828125 0)"/>
      <use xlink:href="#DejaVuSans-5d" transform="translate(131.359375 0)"/>
      <use xlink:href="#DejaVuSans-44" transform="translate(183.84375 0)"/>
      <use xlink:href="#DejaVuSans-51" transform="translate(245.125 0)"/>
      <use xlink:href="#DejaVuSans-51" transform="translate(308.5 0)"/>
      <use xlink:href="#DejaVuSans-48" transform="translate(371.875 0)"/>
     </g>
    </g>
   </g>
  </g>
 </g>
 <defs>
  <clipPath id="p4c7c98ecd9">
   <rect x="95.75625" y="43.922578" width="358.768432" height="286.276161"/>
  </clipPath>
  <clipPath id="pd13b5b89e4">
   <rect x="506.431088" y="43.922578" width="358.768432" height="286.276161"/>
  </clipPath>
 </defs>
</svg>
